<?xml version="1.0" encoding="UTF-8" standalone="no"?>
<svg id="svg2" xmlns:rdf="http://www.w3.org/1999/02/22-rdf-syntax-ns#" xmlns="http://www.w3.org/2000/svg" height="270" viewBox="0 0 270 270" width="270" version="1.1" xmlns:cc="http://creativecommons.org/ns#" xmlns:dc="http://purl.org/dc/elements/1.1/">
 <path id="path4138" style="fill:#fff" d="m95.086 207.22c-1.1754-1.8562-8.0566-12.601-15.292-23.876l-13.155-20.501 2.7421-6.9488c4.0749-10.326 15.016-31.793 21.587-42.355 7.9733-12.815 19.042-27.405 32.214-42.462l11.133-12.726 3.1519 2.997c11.832 11.25 31.507 36.192 42.123 53.397 7.3379 11.893 16.218 29.88 20.193 40.904l2.9001 8.0429-4.7337 7.9268c-2.6036 4.3597-6.9654 11.167-9.6931 15.127-5.0656 7.3542-16.939 22.327-18.012 22.715-0.3271 0.11804-0.69575-4.0698-0.81923-9.3062-0.67606-28.669-10.75-50.337-29.759-64.012-6.7071-4.8247-6.7965-4.8046-15.95 3.5829-11.177 10.242-19.002 23.242-22.848 37.96-2.0156 7.713-4.1054 25.924-3.471 30.246 0.21503 1.4651 0.26369 2.6638 0.10813 2.6638s-1.2445-1.5188-2.4199-3.375z"/>
</svg>
