<?xml version="1.0" encoding="UTF-8" standalone="no"?>
<svg id="svg2" xmlns:rdf="http://www.w3.org/1999/02/22-rdf-syntax-ns#" xmlns="http://www.w3.org/2000/svg" height="24" width="24" version="1.1" xmlns:cc="http://creativecommons.org/ns#" xmlns:dc="http://purl.org/dc/elements/1.1/" viewBox="0 0 24 24">
 <path id="path4" style="fill:#fff" d="m18.5 7.5v2.99s-1.99 0.01-2 0v-2.99h-3s0.01-1.99 0-2h3v-3h2v3h3v2h-3zm-3 4v-3h-3v-3h-8c-1.1 0-2 0.9-2 2v12c0 1.1 0.9 2 2 2h12c1.1 0 2-0.9 2-2v-8h-3zm-11 8 3-4 2 3 3-4 4 5h-12z"/>
 <path id="path6" fill="none" d="m0 0h24v24h-24z"/>
</svg>
