<?xml version="1.0" encoding="UTF-8" standalone="no"?>
<svg id="svg2" xmlns:rdf="http://www.w3.org/1999/02/22-rdf-syntax-ns#" xmlns="http://www.w3.org/2000/svg" height="270" viewBox="0 0 270 270" width="270" version="1.1" xmlns:cc="http://creativecommons.org/ns#" xmlns:dc="http://purl.org/dc/elements/1.1/">
 <path id="path4138" style="fill:#fff" d="m131.96 179.34c-5.9098-11.503-20.711-22.39-33.465-24.616-6.3301-1.1045-14.768 0.51791-19.235 3.6981-3.313 2.3591-3.5925 2.2864-3.5925-0.93426 0-15.292-22.293-22.487-51.201-16.525l-3.051 0.62925 0.63564-3.5127c0.94528-5.2238 7.077-17.263 11.518-22.615 10.857-13.084 31.93-26.303 46.171-28.963l3.9742-0.74246-4.594 3.616c-3.8896 3.0616-4.5916 5.0355-4.1492 9.6392 0.58312 6.0686 4.2408 11.265 10.632 15.106 7.1621 4.3036 12.619 5.6975 24.466 6.2499l10.551 0.4919 0.91112-2.3964c0.50112-1.318 1.3867-6.1319 1.968-10.698 0.58125-4.5656 2.1155-12.727 2.1155-12.727-0.14895 0.76844 1.1634 4.6488 2.6847 8.428l2.5555 6.3479 4.1319-0.0113 4.1319-0.0113 2.6731-6.9558 2.6731-6.9558 0.60721 3.592c0.33396 1.9756 1.0388 6.6622 1.5662 10.415 0.52746 3.7525 1.3862 7.9462 1.9083 9.3195l0.94928 2.4968 8.3114-0.65515c14.556-1.1474 24.508-4.6901 31.639-11.263 4.4229-4.0768 6.4189-8.9292 5.3785-13.075-0.32736-1.3043-1.5574-4.5273-3.6197-6.3337-6.4828-5.6785-11.298-6.6242 6.5314-1.7014 25.764 7.1137 46.648 29.453 50.229 49.375l0.62662 3.4862-2.9866-0.53774c-18.954-3.4126-31.855-2.7322-41.979 2.2138-6.8237 3.3336-9.149 6.5664-9.1538 12.727-0.002 2.3512-0.2446 4.275-0.53944 4.275s-1.6449-0.78954-3.0001-1.7546c-1.3552-0.965-4.9968-2.4587-8.0924-3.3194-7.1364-1.9841-14.695-0.89111-23.38 3.3807-7.2136 3.5483-19.419 15.332-22.494 21.718-1.1322 2.3512-2.1237 4.274-2.2033 4.2729-0.0796-0.0009-1.3406-2.3299-2.8023-5.175z"/>
</svg>
