<?xml version="1.0" encoding="UTF-8" standalone="no"?>
<!-- Created with Inkscape (http://www.inkscape.org/) -->
<svg id="svg4687" xmlns:rdf="http://www.w3.org/1999/02/22-rdf-syntax-ns#" xmlns="http://www.w3.org/2000/svg" height="340" viewBox="0 0 340 340" width="340" version="1.1" xmlns:cc="http://creativecommons.org/ns#" xmlns:dc="http://purl.org/dc/elements/1.1/">
 <metadata id="metadata4693">
  <rdf:RDF>
   <cc:Work rdf:about="">
    <dc:format>image/svg+xml</dc:format>
    <dc:type rdf:resource="http://purl.org/dc/dcmitype/StillImage"/>
    <dc:title/>
   </cc:Work>
  </rdf:RDF>
 </metadata>
 <path id="path4697" fill="#fff" d="m129.21 309.97c-17.047-0.89652-49.74-3.465-58.88-4.6257l-4.8795-0.61971 4.472-1.6975c9.4006-3.5684 22.173-14.227 23.881-19.93 2.1239-7.0888-2.5839-17.842-14.91-34.058-5.9255-7.7951-30.976-33.603-42.141-43.415l-6.4571-5.6746 23.457 11.972c72.781 37.145 130.58 57.422 174.44 61.202 33.462 2.8838 62.093-6.3485 77.206-24.895 2.3696-2.9081 4.3084-4.7582 4.3084-4.1112 0 3.024-9.8802 20.575-15.623 27.753-22.721 28.398-51.606 37.743-119.38 38.623-15.675 0.20353-36.15-0.0323-45.5-0.52399zm63.135-67.987c-19.152-3.0142-39.615-11.356-51.36-20.938-22.777-18.582-33.305-48.562-31.967-91.028 0.7464-23.697 3.7987-37.337 11.997-53.614 11.832-23.491 34.004-39 64.42-45.061 12.722-2.5351 46.446-2.5378 58.275-0.0047 11.498 2.4622 26.521 7.5146 29.64 9.9681 3.2061 2.5219 3.1905 2.6116-4.7652 27.315l-6.1522 19.103-13.611-3.5745c-12.786-3.3578-14.551-3.5749-29.111-3.5808-13.845-0.0056-16.114 0.23914-21.247 2.2918-7.4626 2.9842-15.949 10.747-19.094 17.467-3.641 7.7776-4.821 14.623-5.3968 31.308-0.41507 12.027-0.17442 16.679 1.1771 22.754 7.8742 35.393 37.746 46.974 80.811 31.329 3.7125-1.3487 6.75-2.3256 6.75-2.1709 0 0.15466 2.9308 10.111 6.5129 22.126s6.6196 22.471 6.75 23.236c0.26373 1.5477-20.613 8.9889-32.763 11.678-8.3543 1.8488-42.105 2.7758-50.865 1.397z"/>
</svg>
