<?xml version="1.0" encoding="UTF-8" standalone="no"?>
<svg id="svg4229" xmlns:rdf="http://www.w3.org/1999/02/22-rdf-syntax-ns#" xmlns="http://www.w3.org/2000/svg" height="880" viewBox="0 0 2400 880" width="2400" version="1.1" xmlns:cc="http://creativecommons.org/ns#" xmlns:dc="http://purl.org/dc/elements/1.1/">
 <defs id="defs4233">
  <filter id="filter4272-9" style="color-interpolation-filters:sRGB" height="1.1441" width="1.048" y="-.072069" x="-.023992">
   <feGaussianBlur id="feGaussianBlur4274-0" stdDeviation="21.274637"/>
  </filter>
 </defs>
 <g id="layer4" style="opacity:.346">
  <g id="layer4-4" style="" transform="translate(8.004 10.956)">
   <path id="path4239-8" d="m1193.8 818c-0.2965-0.29645-12.34-0.6609-26.765-0.80991-39.984-0.41305-108.09-4.494-164.35-9.8475-7.2188-0.68695-17.186-1.6208-22.15-2.0753-9.3744-0.8583-10.725-2.158-3.7733-3.6316 16.042-3.4004 52.381-30.174 59.01-43.478 6.6006-13.246 2.6646-30.538-12.856-56.481-16.661-27.849-59.061-75.254-102.71-114.83-9.9572-9.0289-20.926-19.137-24.375-22.462l-6.271-6.0454 8.125 4.3675c4.4687 2.4021 12.906 7.0071 18.75 10.233 12.122 6.692 76.014 38.568 101.25 50.514 17.216 8.1497 25.094 11.669 58.125 25.964 79.912 34.586 162.37 61.857 220 72.762 39.729 7.5178 46.383 8.1858 81.875 8.2186 29.551 0.0274 34.878-0.28957 49.375-2.9369 46.875-8.5601 87.013-30.428 108.13-58.911 3.6083-4.8674 6.8082-8.6022 7.1107-8.2997 0.884 0.88404-8.045 21.747-14.254 33.303-24.256 45.15-63.037 80.049-110.29 99.251-28.655 11.644-77.327 20.043-134.44 23.201-25.445 1.4069-88.689 2.8178-89.51 1.9968zm-528.93-180.49-35.938-4.4635v-192.87-192.87h41.203 41.203l0.3594 11.123 0.3594 11.123 10-7.3822c19.151-14.137 31.799-18.517 56.352-19.512 12.566-0.50936 18.786-0.16968 26.864 1.4672 50.037 10.139 78.388 51.311 83.1 120.68 1.9315 28.433-5.9103 71.763-16.966 93.75-11.7 23.267-34.379 40.845-61.374 47.57-12.687 3.1606-36.396 4.4913-46.446 2.6069-15.753-2.9537-31.704-11.474-44.154-23.584l-8.0007-7.7824v82.47 82.47l-5.3125-0.16183c-2.9219-0.089-21.484-2.1704-41.25-4.6253zm110.68-193.98c5.7303-1.7699 9.9606-4.1535 14.308-8.0619 12.606-11.334 16.098-27.313 15.002-68.651-0.8151-30.758-2.6793-37.566-13.214-48.262-9.0161-9.1538-17.822-12.71-31.466-12.709-5.1572 0.00054-11.956 0.65084-15.108 1.4451-12.185 3.0705-24.662 16.445-30.147 32.318-2.6565 7.6864-2.8714 10.367-2.8714 35.808 0 31.983 1.7564 42.763 8.6022 52.794 4.6988 6.885 13.558 13.319 21.86 15.875 8.6479 2.6628 23.417 2.4138 33.035-0.55681zm255.25 66.029c-18.549-1.018-45.94-5.762-59.229-10.258-25.855-8.7473-45.128-27.396-55.748-53.94-7.308-18.267-8.6583-28.823-8.7069-68.068-0.047-37.636 1.1412-49.153 6.7518-65.46 9.3219-27.094 30.357-48.471 58.807-59.762 24.353-9.6645 62.975-12.117 93.836-5.9596 41.86 8.3524 68.39 34.531 77.556 76.529 2.5017 11.462 4.7516 43.812 4.8224 69.34l0.036 12.812h-80.742-80.742l0.8274 6.5625c1.5307 12.139 4.3595 18.553 11.199 25.393 11.842 11.842 32.374 16.126 63.637 13.276 19.279-1.7573 48.312-8.0093 62.53-13.465 1.21-0.46431 2.2214 0.65777 3.1197 3.4611 2.2271 6.9498 12.671 47.424 12.671 49.105 0 2.2051-23.294 11.241-38.42 14.904-22.059 5.3414-44.433 7.0552-72.206 5.5309zm44.003-170.7c-1.3243-19.518-6.5001-28.649-19.985-35.256-15.311-7.5019-29.871-7.6582-44.546-0.47802-14.284 6.9883-21.336 18.562-23.297 38.234l-0.8412 8.4375h44.706 44.706l-0.7421-10.938zm-838.95 168.94c-46.122-8.1694-76.153-30.747-90.581-68.101-7.3867-19.123-9.3349-32.408-9.3349-63.653 0-24.49 0.3625-29.788 2.8055-40.993 9.8481-45.17 36.631-74.854 78.117-86.578 19.922-5.63 53.773-7.7822 76.864-4.8868 14.025 1.7586 32.913 6.8094 42.404 11.339 6.3511 3.0311 7.85 4.3086 7.85 6.6908 0 1.6194-3.4418 13.544-7.6483 26.499-4.2066 12.955-7.9054 24.451-8.2195 25.546-0.5011 1.7466-2.6733 1.4605-17.664-2.3262-19.896-5.0258-41.894-6.69-53.828-4.0722-14.682 3.2203-26.347 11.515-32.153 22.864-5.9043 11.54-7.2688 19.753-7.3168 44.043-0.04 20.276 0.2428 23.365 2.8616 31.25 6.7911 20.448 17.642 32.178 35.323 38.182 15.253 5.1797 40.047 3.1741 62.624-5.0656l9.755-3.5601 1.9755 7.097c1.0865 3.9034 3.0558 10.472 4.3761 14.597s4.3134 14.146 6.6514 22.269l4.2508 14.769-3.3058 1.2618c-14.071 5.3711-34.262 11.155-44.775 12.826-15.557 2.4733-47.079 2.4755-61.031 0.004zm194.33 0.13162c-37.576-7.4939-65.375-34.998-75.719-74.916-5.9578-22.992-8.5743-63.551-5.5719-86.374 3.7498-28.504 11.373-48.949 24.891-66.756 25.103-33.068 68.754-46.277 109.84-33.238 11.885 3.772 20.093 9.1916 33.692 22.247l10.411 9.9949v-16.422-16.422h38.125 38.125v129.38 129.38h-38.125-38.125v-15.625c0-8.5938-0.4219-15.601-0.9375-15.572-0.5157 0.0292-3.1194 2.8816-5.7862 6.3386-6.5735 8.5211-18.565 18.288-27.651 22.522-14.391 6.7054-44.087 9.278-63.169 5.4726zm64.646-64.578c9.7178-3.6359 19.073-12.996 22.713-22.724 5.6385-15.07 6.1649-68.686 0.8499-86.566-5.4952-18.486-22.582-28.889-45.643-27.786-13.36 0.63872-22.487 4.6309-29.936 13.093-9.57 10.872-13.102 27.436-13.152 61.676-0.033 22.472 1.3803 31.709 6.4053 41.875 7.6789 15.534 20.767 22.956 40.676 23.065 8.2002 0.0449 12.668-0.6054 18.086-2.6326zm814.15 64.665c-17.57-3.8872-27.609-8.8566-45.322-22.434l-4.6781-3.5859v11.398 11.398h-41.25-41.25v-192.86-192.86l39.062-4.6771c21.484-2.5724 40.047-4.6597 41.25-4.6385 2.0609 0.0364 2.1875 4.8235 2.1875 82.712v82.674l5.3125-5.5663c17.021-17.834 34.506-25.896 58.438-26.944 28.577-1.2518 55.141 6.9739 74.499 23.07 6.8169 5.668 17.816 19.844 22.088 28.469 10.754 21.709 18.503 65.166 16.603 93.125-4.6841 68.953-32.909 110.33-82.21 120.51-11.323 2.3388-34.617 2.4487-44.731 0.21106zm18.463-65.716c9.5372-4.1058 18.226-14.04 21.658-24.763 2.2188-6.9319 2.7873-12.471 3.3119-32.268 1.0961-41.363-2.394-57.315-15.025-68.671-8.662-7.7879-19.569-11.044-34.592-10.325-9.2838 0.44386-12.312 1.1686-19.34 4.6285-19.559 9.6288-25.366 27.043-24.166 72.473 0.487 18.442 1.0208 23.253 3.2668 29.443 5.0499 13.918 14.267 25.138 24.727 30.102 9.7987 4.6498 28.593 4.36 40.159-0.61931zm234.8 66.156c-19.296-2.6664-33.371-7.2387-48.967-15.907-31.031-17.247-50.152-47.925-54.308-87.131-3.3602-31.699 1.2042-74.894 10.196-96.494 13.474-32.367 38.462-52.39 77.943-62.455 10.246-2.6121 16.444-3.2986 34.375-3.8075 19.962-0.56657 23.197-0.34552 36.992 2.5282 51.551 10.738 80.601 38.792 92.603 89.426 4.6362 19.56 5.4619 52.288 1.8497 73.302-1.4183 8.25-3.7838 18.656-5.2568 23.125-12.574 38.148-40.609 64.435-79.473 74.518-10.51 2.7268-15.676 3.2671-34.84 3.6432-12.375 0.24292-26.377-0.094-31.115-0.74879zm42.549-65.125c12.542-4.6224 21.917-16.046 26.064-31.756 2.6461-10.026 3.896-49.102 1.9961-62.406-1.6121-11.29-6.4735-22.81-12.541-29.721-2.2226-2.5314-7.7799-6.4423-12.35-8.6908-7.8741-3.8743-9.029-4.087-22.081-4.0647-11.441 0.0195-14.773 0.48219-19.688 2.733-12.488 5.7185-19.881 14.255-24.137 27.868-2.7609 8.8309-4.0222 52.256-1.9622 67.562 2.4695 18.35 9.6215 29.569 23.06 36.173 13.04 6.4085 28.221 7.2479 41.639 2.3024zm237 65.164c-51.199-6.4147-88.716-37.476-100.35-83.077-7.3236-28.718-5.1535-81.543 4.5413-110.54 15.202-45.476 59.495-72.617 118.67-72.72 32.483-0.0564 60.897 7.9781 82.586 23.353 9.8032 6.9492 22.313 20.5 28.321 30.679 18.003 30.5 23.914 79.026 14.744 121.04-10.358 47.457-41.716 79.321-88.205 89.628-10.429 2.312-47.008 3.3054-60.316 1.6379zm41.832-65.108c5.2217-1.9167 9.1603-4.6119 14.156-9.6875 11.66-11.845 14.852-24.728 14.905-60.157 0.035-23.23-1.3849-33.032-6.2659-43.259-4.305-9.0201-11.258-15.737-21.036-20.322-6.27-2.94-8.5028-3.2914-20.775-3.2704-16.236 0.0278-21.91 2.0268-31.672 11.158-12.5 11.692-16.007 27.537-14.817 66.944 0.5605 18.571 1.2085 24.725 3.2906 31.25 4.3111 13.51 13.66 23.164 26.848 27.723 9.3019 3.2156 26.064 3.0363 35.367-0.37838zm136.92-131.38 0.3165-192.79 39.815-4.7943c21.898-2.6368 40.034-4.5756 40.301-4.3083 0.2673 0.2673 0.5014 58.07 0.5201 128.45 0.029 106.74 0.3108 127.66 1.7018 126.16 0.9171-0.99404 17.595-26.839 37.061-57.432 19.467-30.594 36.03-56.336 36.808-57.204 1.0984-1.2264 10.975-1.5057 44.214-1.25l42.8 0.3292-40.674 63.569c-22.37 34.963-40.674 63.79-40.674 64.06 0 0.38709 33.771 53.624 77.032 121.43l4.1867 6.5625-43.422-0.0487-43.422-0.0488-36.875-58.065c-20.281-31.936-37.308-58.07-37.837-58.076-0.5289-0.006-0.9396 25.161-0.913 55.927 0.026 30.766 0.037 56.922 0.024 58.125-0.023 2.038-2.8018 2.1875-40.654 2.1875h-40.629l0.3163-192.79z" style="filter:url(#filter4272-9)"/>
  </g>
 </g>
 <g id="layer1">
  <g id="layer3" transform="translate(-8.5286 5.5354)">
   <path id="path4239" d="m1193.8 783.93c-0.2965-0.29645-12.34-0.6609-26.765-0.80991-39.984-0.41305-108.09-4.494-164.35-9.8475-7.2187-0.68695-17.186-1.6208-22.15-2.0753-9.3744-0.8583-10.725-2.158-3.7733-3.6316 16.042-3.4004 52.381-30.174 59.01-43.478 6.6006-13.246 2.6646-30.538-12.856-56.481-16.661-27.849-59.061-75.254-102.71-114.83-9.9571-9.0289-20.926-19.137-24.375-22.462l-6.271-6.0454 8.125 4.3675c4.4688 2.4021 12.906 7.0071 18.75 10.233 12.122 6.692 76.014 38.568 101.25 50.514 17.216 8.1497 25.094 11.669 58.125 25.964 79.912 34.586 162.37 61.857 220 72.762 39.729 7.5178 46.383 8.1858 81.875 8.2186 29.551 0.0274 34.878-0.28957 49.375-2.9369 46.875-8.5601 87.013-30.428 108.13-58.911 3.6083-4.8674 6.8082-8.6022 7.1107-8.2997 0.884 0.88404-8.045 21.747-14.254 33.303-24.256 45.15-63.037 80.049-110.29 99.251-28.655 11.644-77.327 20.043-134.44 23.201-25.445 1.4069-88.689 2.8178-89.51 1.9968zm-528.93-180.49-35.938-4.4635v-192.87-192.87h41.203 41.203l0.3594 11.123 0.3594 11.123 10-7.3822c19.151-14.137 31.799-18.517 56.352-19.512 12.566-0.50936 18.785-0.16968 26.864 1.4672 50.037 10.139 78.388 51.311 83.1 120.68 1.9315 28.433-5.9103 71.763-16.966 93.75-11.7 23.267-34.379 40.845-61.374 47.57-12.687 3.1606-36.396 4.4913-46.446 2.6069-15.753-2.9537-31.704-11.474-44.154-23.584l-8.0007-7.7824v82.47 82.47l-5.3125-0.16183c-2.9219-0.089-21.484-2.1704-41.25-4.6253zm110.68-193.98c5.7303-1.7699 9.9606-4.1535 14.308-8.0619 12.606-11.334 16.098-27.313 15.002-68.651-0.8151-30.758-2.6792-37.566-13.214-48.262-9.0161-9.1538-17.822-12.71-31.466-12.709-5.1573 0.00054-11.956 0.65084-15.108 1.4451-12.185 3.0705-24.662 16.445-30.147 32.318-2.6565 7.6864-2.8715 10.367-2.8715 35.808 0 31.983 1.7564 42.763 8.6022 52.794 4.6989 6.885 13.558 13.319 21.86 15.875 8.6479 2.6628 23.417 2.4138 33.035-0.55681zm255.25 66.029c-18.549-1.018-45.94-5.762-59.229-10.258-25.855-8.7473-45.128-27.396-55.748-53.94-7.3079-18.267-8.6582-28.823-8.7069-68.068-0.047-37.636 1.1412-49.153 6.7518-65.46 9.3219-27.094 30.357-48.471 58.807-59.762 24.353-9.6645 62.975-12.117 93.836-5.9596 41.86 8.3524 68.39 34.531 77.556 76.529 2.5017 11.462 4.7516 43.812 4.8224 69.34l0.036 12.812h-80.742-80.742l0.8275 6.5625c1.5306 12.139 4.3594 18.553 11.199 25.393 11.842 11.842 32.374 16.126 63.637 13.276 19.279-1.7573 48.312-8.0093 62.53-13.465 1.21-0.46431 2.2214 0.65777 3.1197 3.4611 2.2271 6.9498 12.671 47.424 12.671 49.105 0 2.2051-23.294 11.241-38.42 14.904-22.059 5.3414-44.433 7.0552-72.206 5.5309zm44.003-170.7c-1.3243-19.518-6.5001-28.649-19.985-35.256-15.311-7.5019-29.871-7.6582-44.546-0.47802-14.284 6.9883-21.336 18.562-23.297 38.234l-0.8412 8.4375h44.706 44.706l-0.7421-10.938zm-838.95 168.95c-46.122-8.1694-76.153-30.747-90.581-68.101-7.3867-19.123-9.335-32.408-9.335-63.653 0-24.49 0.36256-29.788 2.8055-40.993 9.8481-45.17 36.631-74.854 78.117-86.578 19.922-5.63 53.773-7.7822 76.864-4.8868 14.025 1.7586 32.913 6.8094 42.404 11.339 6.3512 3.0311 7.85 4.3086 7.85 6.6908 0 1.6194-3.4417 13.544-7.6483 26.499s-7.9054 24.451-8.2195 25.546c-0.50101 1.7466-2.6733 1.4605-17.664-2.3262-19.896-5.0258-41.894-6.69-53.828-4.0722-14.682 3.2203-26.347 11.515-32.153 22.864-5.9043 11.54-7.2688 19.753-7.3168 44.043-0.0401 20.276 0.24278 23.365 2.8615 31.25 6.7911 20.448 17.642 32.178 35.323 38.182 15.253 5.1797 40.047 3.1741 62.624-5.0656l9.755-3.5601 1.9755 7.097c1.0865 3.9034 3.0558 10.472 4.3761 14.597s4.3134 14.146 6.6514 22.269l4.2508 14.769-3.3058 1.2618c-14.071 5.3711-34.262 11.155-44.775 12.826-15.557 2.4733-47.079 2.4755-61.031 0.004zm194.33 0.13162c-37.576-7.4939-65.375-34.998-75.719-74.916-5.9579-22.992-8.5743-63.551-5.5719-86.374 3.7498-28.504 11.373-48.949 24.891-66.756 25.103-33.068 68.754-46.277 109.84-33.238 11.885 3.772 20.093 9.1916 33.692 22.247l10.411 9.9949v-16.422-16.422h38.125 38.125v129.38 129.38h-38.125-38.125v-15.625c0-8.5938-0.4219-15.601-0.9375-15.572-0.5156 0.0292-3.1194 2.8816-5.7862 6.3386-6.5735 8.5211-18.565 18.288-27.651 22.522-14.391 6.7054-44.087 9.278-63.168 5.4726zm64.645-64.578c9.7178-3.6359 19.073-12.996 22.713-22.724 5.6386-15.07 6.1649-68.686 0.8499-86.566-5.4952-18.486-22.582-28.889-45.643-27.786-13.359 0.63872-22.487 4.6309-29.936 13.093-9.57 10.872-13.102 27.436-13.152 61.676-0.033 22.472 1.3804 31.709 6.4053 41.875 7.6789 15.534 20.767 22.956 40.676 23.065 8.2003 0.0449 12.668-0.6054 18.086-2.6326zm814.15 64.665c-17.57-3.8872-27.609-8.8566-45.322-22.434l-4.6781-3.5859v11.398 11.398h-41.25-41.25v-192.86-192.86l39.062-4.6771c21.484-2.5724 40.047-4.6597 41.25-4.6385 2.0609 0.0364 2.1875 4.8235 2.1875 82.712v82.674l5.3125-5.5663c17.021-17.834 34.506-25.896 58.438-26.944 28.577-1.2518 55.141 6.9739 74.499 23.07 6.8169 5.668 17.816 19.844 22.088 28.469 10.754 21.709 18.503 65.166 16.603 93.125-4.6841 68.953-32.909 110.33-82.21 120.51-11.323 2.3388-34.617 2.4487-44.731 0.21106zm18.463-65.716c9.5372-4.1058 18.226-14.04 21.658-24.763 2.2188-6.9319 2.7873-12.471 3.3119-32.268 1.0961-41.363-2.394-57.315-15.025-68.671-8.662-7.7879-19.569-11.044-34.592-10.325-9.2838 0.44386-12.312 1.1686-19.34 4.6285-19.559 9.6288-25.366 27.043-24.166 72.473 0.487 18.442 1.0208 23.253 3.2668 29.443 5.0499 13.918 14.267 25.138 24.727 30.102 9.7987 4.6498 28.593 4.36 40.159-0.61931zm234.8 66.156c-19.296-2.6664-33.371-7.2387-48.967-15.907-31.031-17.247-50.152-47.925-54.308-87.131-3.3602-31.699 1.2042-74.894 10.196-96.494 13.474-32.367 38.462-52.39 77.943-62.455 10.246-2.6121 16.444-3.2986 34.375-3.8075 19.962-0.56657 23.197-0.34552 36.992 2.5282 51.551 10.738 80.601 38.792 92.603 89.426 4.6362 19.56 5.4619 52.288 1.8497 73.302-1.4183 8.25-3.7838 18.656-5.2568 23.125-12.574 38.148-40.609 64.435-79.473 74.518-10.51 2.7268-15.676 3.2671-34.84 3.6432-12.375 0.24292-26.377-0.094-31.115-0.74879zm42.549-65.125c12.542-4.6224 21.917-16.046 26.064-31.756 2.6461-10.026 3.896-49.102 1.9961-62.406-1.6121-11.29-6.4735-22.81-12.541-29.721-2.2226-2.5314-7.7799-6.4423-12.35-8.6908-7.8741-3.8743-9.029-4.087-22.081-4.0647-11.441 0.0195-14.773 0.48219-19.688 2.733-12.488 5.7185-19.881 14.255-24.137 27.868-2.7609 8.8309-4.0222 52.256-1.9622 67.562 2.4695 18.35 9.6215 29.569 23.06 36.173 13.04 6.4085 28.221 7.2479 41.639 2.3024zm237 65.164c-51.199-6.4147-88.716-37.476-100.35-83.077-7.3236-28.718-5.1535-81.543 4.5413-110.54 15.202-45.476 59.495-72.617 118.67-72.72 32.483-0.0564 60.897 7.9781 82.586 23.353 9.8032 6.9492 22.313 20.5 28.321 30.679 18.003 30.5 23.914 79.026 14.744 121.04-10.358 47.457-41.716 79.321-88.205 89.628-10.429 2.312-47.008 3.3054-60.316 1.6379zm41.832-65.108c5.2217-1.9167 9.1603-4.6119 14.156-9.6875 11.66-11.845 14.852-24.728 14.905-60.157 0.035-23.23-1.3849-33.032-6.2659-43.259-4.305-9.0201-11.258-15.737-21.036-20.322-6.27-2.94-8.5028-3.2914-20.775-3.2704-16.236 0.0278-21.91 2.0268-31.672 11.158-12.5 11.692-16.007 27.537-14.817 66.944 0.5605 18.571 1.2085 24.725 3.2906 31.25 4.3111 13.51 13.66 23.164 26.848 27.723 9.3019 3.2156 26.064 3.0363 35.367-0.37838zm136.92-131.38 0.3165-192.79 39.815-4.7943c21.898-2.6368 40.034-4.5756 40.301-4.3083 0.2673 0.2673 0.5014 58.07 0.5201 128.45 0.029 106.74 0.3108 127.66 1.7018 126.16 0.9171-0.99404 17.595-26.839 37.061-57.432 19.467-30.594 36.03-56.336 36.808-57.204 1.0984-1.2264 10.975-1.5057 44.214-1.25l42.8 0.3292-40.674 63.569c-22.37 34.963-40.674 63.79-40.674 64.06 0 0.38709 33.771 53.624 77.032 121.43l4.1867 6.5625-43.422-0.0487-43.422-0.0488-36.875-58.065c-20.281-31.936-37.308-58.07-37.837-58.076-0.5289-0.006-0.9396 25.161-0.913 55.927 0.026 30.766 0.037 56.922 0.024 58.125-0.023 2.038-2.8018 2.1875-40.654 2.1875h-40.629l0.3163-192.79z" style="fill:#fff"/>
  </g>
 </g>
</svg>
