<?xml version="1.0" encoding="UTF-8" standalone="no"?>
<svg
   xmlns:dc="http://purl.org/dc/elements/1.1/"
   xmlns:cc="http://creativecommons.org/ns#"
   xmlns:rdf="http://www.w3.org/1999/02/22-rdf-syntax-ns#"
   xmlns:svg="http://www.w3.org/2000/svg"
   xmlns="http://www.w3.org/2000/svg"
   xmlns:sodipodi="http://sodipodi.sourceforge.net/DTD/sodipodi-0.dtd"
   xmlns:inkscape="http://www.inkscape.org/namespaces/inkscape"
   id="svg2"
   height="225"
   viewBox="0 0 225 225"
   width="225"
   version="1.1"
   inkscape:version="0.91 r13725"
   sodipodi:docname="ele.svg">
  <metadata
     id="metadata8">
    <rdf:RDF>
      <cc:Work
         rdf:about="">
        <dc:format>image/svg+xml</dc:format>
        <dc:type
           rdf:resource="http://purl.org/dc/dcmitype/StillImage" />
        <dc:title></dc:title>
      </cc:Work>
    </rdf:RDF>
  </metadata>
  <defs
     id="defs6" />
  <sodipodi:namedview
     pagecolor="#ffffff"
     bordercolor="#666666"
     borderopacity="1"
     objecttolerance="10"
     gridtolerance="10"
     guidetolerance="10"
     inkscape:pageopacity="0"
     inkscape:pageshadow="2"
     inkscape:window-width="640"
     inkscape:window-height="480"
     id="namedview4"
     showgrid="false"
     inkscape:zoom="2.5822222"
     inkscape:cx="74.976622"
     inkscape:cy="112.5"
     inkscape:current-layer="svg2" />
  <path
     id="path4138"
     d="m71.625 197.91c-5.9407-0.96867-5.428-2.0922 2.398-5.2552 8.4758-3.4256 13.025-7.5872 20.718-18.954 5.4372-8.0337 13.513-18.077 20.801-25.87 6.6571-7.1182 17.048-12.576 25.309-13.293l5.4-0.46875-4.3165 1.2372c-4.8944 1.4029-10.754 4.0899-12.385 8.237-0.6099 1.5506-1.4971 3.2956-1.5118 5.9794-0.0427 7.7807 0.20998 11.012 11.454 11.053 14.474 0.0526 24.036-10.327 25.006-27.142 0.27789-4.815-0.14341-9.1669-0.87269-10.928-1.4923-3.6027-5.725-9.1437-9.7772-11.506-4.2847-2.4982-8.2432-0.16691-8.2432-0.16691-0.1105-1.4279 2.628-4.7719 11.802-4.4687 9.1439 0.30224 11.144 0.6648 16.067 2.9128 10.786 4.9255 16.197 13.645 15.277 24.618-0.81628 9.7366-3.6062 15.82-10.686 23.3-6.7188 7.0985-7.6746 9.9462-4.1638 12.405 3.0462 2.1336 6.3529 1.7246 9.0814-1.1232 2.6628-2.7793 3.1546-6.511 1.1256-8.54-1.1237-1.1238-1.0221-1.4377 0.77744-2.4008 2.733-1.4626 7.0904 0.69682 9.5518 4.7337 2.1894 3.5908 2.3463 11.264 0.31282 15.301-2.9027 5.763-10.979 12.33-15.163 12.33-2.3763 0-1.5398-1.5533 2.7134-5.0385 3.5018-2.8694 8.5008-9.597 8.5008-11.44 0-0.31384-1.8297 0.40226-4.066 1.5913-11.937 6.3468-23.863 2.1484-22.719-7.998 0.59336-5.2643 2.9989-8.4049 11.438-14.933 4.3235-3.3446 7.5273-6.5818 8.2611-8.3473 1.6823-4.0475 1.4954-12.021-0.39783-16.976-3.1692-8.2934-10.337-13.91-19.439-15.868l-5.3616-1.1532 4.3109 5.0993c3.3088 3.9139 6.654 10.284 6.1753 19.264-0.44955 8.4321-2.3074 12.317-4.4467 16.881-3.0528 6.5127-8.7361 10.358-14.104 12.986-3.3541 1.642-5.654 2.0463-11.402 2.004-11.892-0.0876-18.63-4.2835-18.63-11.601 0-1.7438-0.14254-3.1706-0.31676-3.1706-0.77066 0-6.0154 8.4754-11.055 17.864-5.3299 9.9303-5.4144 10.193-3.0404 9.45 1.343-0.42033 11.757-0.76425 23.142-0.76425 22.752 0 24.411-0.33215 25.36-5.0763 0.66864-3.3432 2.8207-4.3533 4.4699-2.0979 1.8536 2.535 1.4477 6.7376-1.0774 11.155-3.1474 5.5062-2.5483 6.369 4.4227 6.369 4.3093 0 5.9139 0.34384 6.3 1.35 0.32432 0.84518 1.7906 1.3835 3.9213 1.4397 5.7667 0.15202 7.9032 1.0965 7.9032 3.4937 0 1.6412-0.64106 2.3126-2.7 2.8278-3.2686 0.81786-101.43 1.4635-106.13 0.69804zm79.149-11.08-0.0239-3.9712-12.6-0.28003c-19.785-0.43973-27.568-0.0842-31.924 1.4582-4.31 1.5261-8.374 4.734-7.5948 5.9949 0.26146 0.42305 12.106 0.76918 26.321 0.76918h25.846l-0.0239-3.9712zm-92.239-33.56c-1.7157-0.89341-3.8988-2.9743-4.8515-4.6241-1.5493-2.6831-1.6183-3.5084-0.65358-7.8191 0.59319-2.6507 1.974-6.1482 3.0685-7.7722 2.9539-4.3833 17.506-16.856 28.867-24.742 20.626-14.317 27.404-19.463 30.535-21.849 4.348-3.3135 11.655-9.1322 14.28-10.957 0.63891-0.44417-7.2744 10.182-10.452 14.138-3.0299 3.7715-8.2188 12.55-13.242 22.402-4.5427 8.91-10.279 19.145-12.747 22.745-5.1425 7.4999-13.189 15.315-18.288 17.763-5.0224 2.4108-12.629 2.7409-16.516 0.71668zm20.675-12.646c5.2766-2.5334 6.3131-3.5076 10.475-9.8451 4.345-6.6 16.959-30.77 16.349-31.313-0.46-0.409-26.962 18.473-33.478 23.843-9.849 8.12-14.779 17.26-10.677 19.78 2.807 1.7276 11.058 0.56057 17.331-2.4513zm-52.206-22.38c0-1.02 3.815-6.87 9.905-15.19 11.413-15.586 17.918-25.592 17.004-26.156-0.50113-0.30971-5.1376-0.42852-10.303-0.264-5.1657 0.16451-9.4965 0.01275-9.6241-0.33724-0.12751-0.34999 1.8282-2.9778 4.3461-5.8395 4.2849-4.87 16.945-21.098 28.106-36.028l4.878-6.525h28.394c15.617 0 28.225 0.16504 28.019 0.36677-0.20625 0.20172-5.64 4.1014-12.075 8.6658-14.98 10.622-30.15 23.383-30.15 25.354 0 0.392 5.125 0.713 11.389 0.713h11.389l-1.7145 1.9097c-3.27 3.648-22.054 17.02-61.55 43.82-6.297 4.27-18.01 10.46-18.01 9.51zm28.855-24.605c5.423-4.345 15.738-12.105 22.92-17.243l13.06-9.342-10.578-0.255c-5.818-0.141-10.913-0.591-11.323-1.001-0.726-0.726 6.517-7.446 14.666-13.608 2.2275-1.6843 7.0973-5.7115 10.822-8.9492 3.7244-3.2377 7.7744-6.5743 9-7.4146 2.1355-1.4641 1.5645-1.5298-13.703-1.575l-15.933-0.047-2.673 3.825c-3.003 4.296-12.973 16.218-21.581 25.806l-5.717 6.369h7.1532c5.933 0 7.4224 0.29741 8.7311 1.7436 2.3313 2.576 0.85083 5.9615-7.6991 17.606-7.8456 10.686-9.7566 13.686-8.0427 12.626 0.57019-0.3524 5.4742-4.196 10.898-8.5414zm68.602 16.636c-3.249-1.4126-4.3654-4.2259-3.5024-8.8259 0.82779-4.4125 4.9493-8.7732 14.235-15.062 4.5984-3.114 11.393-6.5793 14.858-9.3863 7.4219-6.0126 17.221-13.078 18.204-13.997 2.3166-2.1673 1.0029 1.2819-4.5586 8.0862-3.0282 3.7049-9.5101 12.676-14.404 19.936-8.7991 13.053-13.304 18.106-17.596 19.738-2.8607 1.0876-3.7469 1.0277-7.2351-0.48889zm11.55-9.6964c1.6736-1.9418 7.8048-10.609 9.2951-13.14 0.59141-1.0043 0.34571-1.0202-1.4183-0.0918-7.03 3.702-16.09 11.086-16.09 13.112 0 2.689 5.9188 2.778 8.2068 0.12345z"
     style="fill:#ffffff" />
</svg>
