<?xml version="1.0" encoding="UTF-8" standalone="no"?>
<svg id="svg2" xmlns:rdf="http://www.w3.org/1999/02/22-rdf-syntax-ns#" xmlns="http://www.w3.org/2000/svg" height="225" viewBox="0 0 225 225" width="225" version="1.1" xmlns:cc="http://creativecommons.org/ns#" xmlns:dc="http://purl.org/dc/elements/1.1/">
 <path id="path4138" style="fill:#fff" d="m59.419 200.79c-2.6164-2.8706-8.907-20.018-10.893-29.692-2.4292-11.836-2.4355-22.542-0.01921-32.683 6.0328-25.321 21.214-47.459 44.379-64.715 9.1219-6.7954 25.843-15.241 27.304-13.791 0.21375 0.21223-4.7932 3.8592-11.127 8.1043-27.982 18.756-49.093 46.705-54.579 72.258-1.4203 6.6161-1.6659 22.576-0.3927 25.518 0.65656 1.517 0.81517 1.2596 0.86886-1.4105 0.16969-8.4384 9.9137-32.432 15.679-38.61 2.0087-2.152 2.4562-2.2861 3.656-1.0949 1.0713 1.0637 1.1518 1.9194 0.37217 3.9555-0.54719 1.429-1.2407 5.7813-1.5411 9.6718-0.53765 6.9627-0.51998 7.0383 1.1265 4.82 0.91997-1.2395 4.6716-8.7556 8.3368-16.702 5.9425-12.884 6.9108-14.449 8.9418-14.449 2.2229 0 2.2842 0.19847 2.5498 8.2626 0.16251 4.9343-0.3119 11.067-1.1777 15.224-0.79743 3.8286-1.2734 7.1363-1.0577 7.3505 0.67912 0.6743 13.572-14.811 17.14-20.585 1.8765-3.0375 4.5274-8.257 5.8907-11.599 2.0863-5.1138 2.8344-6.0761 4.7241-6.0761 2.1744 0 2.2626 0.27824 2.7966 8.8152 0.54799 8.7611 2.5132 19.489 3.5692 19.483 0.90064-0.005 9.4747-15.349 10.586-18.945 1.2283-3.9739 3.6364-6.3579 5.6479-5.5916 0.80676 0.3074 2.5888 3.3417 3.9602 6.7428 1.3713 3.4012 3.9261 8.122 5.6774 10.491 3.737 5.0547 3.956 6.378 1.0557 6.378-3.1002 0-5.9135-2.292-8.7852-7.1574-2.2367-3.7896-2.6458-4.0938-3.5187-2.6163-4.5732 7.741-13.031 19.92-14.122 20.336-1.8604 0.70885-3.891-0.19327-4.6154-2.0505-0.33298-0.85365-1.3665-5.2253-2.2967-9.7148-1.5505-7.4832-2.4109-9.947-3.1173-8.9263-0.14717 0.21265-1.8408 2.7983-3.7637 5.746-4.4343 6.7976-15.464 18.369-19.635 20.599-6.2651 3.35-7.5712 0.002-4.8738-12.495 0.71502-3.3124 1.1208-6.2005 0.90171-6.418-0.49533-0.49182 0.41796-2.1365-8.3419 15.023-6.8622 13.442-7.6683 14.623-9.8127 14.383-2.2457-0.25214-2.3545-0.5683-2.8036-8.1496l-0.46727-7.8872-2.1595 5.5209c-3.508 8.9686-4.8322 16.341-4.9469 27.541-0.10896 10.638 0.93894 16.851 3.601 21.349 2.6531 4.483-1.2374 7.6076-4.7178 3.789zm-15.832-23.63c-6.668-8.69-10.991-22.33-10.991-34.68 0-12.466 4.6182-29.021 12.393-44.427 15.389-30.492 49.683-61 80.131-71.28 14.473-4.8872 29.18-5.6959 34.334-1.888 3.8898 2.8733 3.9945 8.5107 0.28627 15.41-3.4112 6.347-3.5828 10.113-0.95655 20.99 3.5546 14.723 11.146 25.88 26.699 39.242 6.984 6.0003 8.611 10.104 5.2154 13.156-3.9992 3.5935-9.3783 0.82382-21.204-10.918-12.038-11.953-19.034-26.694-19.85-41.83-0.25083-4.651-0.004-9.9516 0.55757-11.963 0.67394-2.4152 0.70139-4.1808 0.0828-5.3284-0.68054-1.2626-0.38965-2.9521 1.1004-6.3912 1.114-2.5712 1.8149-4.8839 1.5576-5.1394-0.25733-0.25549-2.5225-0.69009-5.0337-0.96578-10.407-1.1425-31.882 6.816-47.378 17.559-27.335 18.95-42.056 39.798-53.926 66.833l-5.7827 14.72c-1.3763 4.8731-3.4325 12.01-3.1249 19.908 0.33498 8.6014 3.0206 14.484 8.3525 26.526 1.8927 4.2746 0.6487 4.5125-2.4588 0.46396zm80.723-82.258c-1.292-0.8127-1.1296-5.5593 0.34452-10.068 0.63324-1.9369 0.29281-1.852-4.8003 1.1976-9.7354 5.8293-21.92 7.9736-26.9 4.734-2.853-1.8561-3.1703-5.1984-0.70392-7.4146 2.3122-2.0776 4.8328-1.9624 4.8328 0.22086 0 2.4102 1.5516 2.8024 7.434 1.8791 7.2827-1.1431 14.647-5.0521 21.149-11.226 8.5851-8.1522 11.313-6.9511 8.4891 3.7381-0.87086 3.2968-1.4051 6.1711-1.1872 6.3874 0.81476 0.80898 8.2426-6.7171 9.9945-10.127 2.0763-4.041 3.3776-4.4856 4.1528-1.4189 1.2202 4.8273-4.8506 13.279-13.8 19.213-5.8489 3.878-6.894 4.2128-9.0054 2.8847z"/>
</svg>
