<?xml version="1.0" encoding="UTF-8" standalone="no"?>
<svg id="svg2" xmlns:rdf="http://www.w3.org/1999/02/22-rdf-syntax-ns#" xmlns="http://www.w3.org/2000/svg" height="225" viewBox="0 0 224.9952 224.9952" width="225" version="1.1" xmlns:cc="http://creativecommons.org/ns#" xmlns:dc="http://purl.org/dc/elements/1.1/">
 <path id="path4138" style="fill:#fff" d="m81.243 194.29c-1.905-11.297-3.1794-29.363-2.5791-36.562l0.606-7.2665h-4.5424c-5.9579 0-12.095-2.1599-16.534-5.8192-3.5994-2.967-7.0139-8.9655-7.0936-12.462-0.02761-1.2116-2.4485-3.6659-6.8427-6.9369-10.079-7.5-15.767-15.85-18.947-27.83-3.07-11.556 1.22-29.242 9.6-39.574 8.34-10.285 13.941-13.575 36.427-21.399 33.795-11.759 30.255-10.892 46.405-11.378 22.32-0.67122 37.811 1.9815 52.922 9.0628 15.202 7.124 22.45 14.745 27.279 28.683 5.2616 15.186 2.9831 27.162-7.3103 38.425-5.9942 6.5586-18.66 13.202-26.96 14.141-5.4136 0.61248-5.6245 0.74482-9.0013 5.6478-3.7952 5.5105-9.9654 10.109-15.863 11.822-2.093 0.60796-7.0745 1.1299-11.07 1.1598-5.2774 0.0396-7.2647 0.38522-7.2656 1.2637-0.003 3.1527-4.7838 9.7709-14.365 19.886-5.764 6.0855-11.833 13.321-13.486 16.078-2.5741 4.2929-5.3767 13.305-8.1915 26.342-0.91109 4.2196-2.1397 2.9565-3.1915-3.2812zm8.9922-33.75c2.5398-3.2226 7.233-8.3906 10.429-11.484 7.526-7.2843 11.374-13.046 11.374-17.03 0-4.6845-2.6143-3.6509-8.4242 3.3304-4.138 4.9723-10.883 10.448-14.254 11.571-1.159 0.38632-5.0513 19.472-3.9711 19.472 0.1254 0 2.306-2.6367 4.8458-5.8594zm1.6471-21.696c2.5781-1.2235 6.5683-4.1725 8.8671-6.5533l4.1796-4.3287-21.055 0.0143c-11.58 0.007-21.627 0.37693-22.326 0.82008-1.9447 1.2322 1.3089 7.3291 4.9136 9.2074 7.2119 3.758 18.487 4.1306 25.42 0.84018zm28.494-17.079c8.5108-0.54694 10.551-1.03 16.122-3.8171 7.2312-3.6176 10.671-7.1674 12.105-12.493 1.2921-4.7986 0.51292-7.5641-3.1222-11.082-5.7604-5.5739-11.493-7.0891-35.981-9.5104-15.412-1.521-21.829-5.406-21.829-13.219 0-2.0229 0.42188-3.6781 0.9375-3.6781s0.9375 0.81138 0.9375 1.8031c0 2.7581 4.2415 7.1899 8.5192 8.9015 2.3926 0.95731 9.0161 1.8777 17.582 2.4432 15.878 1.0482 22.647 2.4487 28.548 5.9072 7.1426 4.1858 11.499 11.412 9.7024 16.094-0.58702 1.5298 0.81744 1.9727 1.7044 0.53753 0.29769-0.48166 1.9899-0.64068 3.7604-0.35336 5.7777 0.93759 14.375-5.63 17.419-13.306 0.61247-1.5446 1.3082-2.2847 1.546-1.6446 0.78668 2.1172-1.7694 7.9319-5.1141 11.634-3.774 4.1773-2.3738 4.004 4.9269-0.60997 5.4261-3.4293 9.887-8.2318 12.869-13.855 1.6428-3.0977 2.0953-5.487 2.0809-10.99-0.0236-9.0726-2.8209-14.447-11.62-22.325-5.0855-4.5532-19.246-14.247-20.792-14.235-0.19252 0.0016-0.35164 2.0517-0.35362 4.5559-0.003 4.0842-0.54722 5.2662-5.2843 11.481-9.1929 12.061-10.635 16.049-7.7916 21.548 3.225 6.2364 14.129 8.7684 19.516 4.5314 2.3843-1.8755 2.4702-1.8805 2.4702-0.1453 0 4.4935-8.0116 7.0351-15.673 4.972-5.3004-1.4272-10.237-6.2098-11.087-10.742-0.97914-5.2193 0.9671-9.9924 8.2196-20.158 7.8244-10.968 8.2717-13.812 2.7466-17.468-6.7727-4.4819-37.36-6.6499-51.998-3.6855-10.646 2.156-11.565 3.0034-3.3921 3.1278 7.5155 0.1144 17.221 2.4287 16.318 3.8909-0.3065 0.49592-4.2238 0.9157-8.7051 0.93286l-8.1478 0.03119 2.3438 1.8973c4.6001 3.7239 11.25 10.536 11.25 11.524 0 0.55304-1.3064-0.57941-2.9032-2.5165-7.1038-8.6182-22.685-11.547-25.269-4.7505-1.1366 2.9894-3.2464 2.3836-3.1974-0.91806 0.04672-3.1438-1.0819-3.1626-10.535-0.17566-8.4633 2.6741-14.1 6.0472-19.8 11.849-13.066 13.3-16.837 31.177-9.7491 46.214 3.1091 6.5961 3.4584 6.8116 5.2653 3.2482 1.8373-3.6233 5.6084-5.6228 11.635-6.1693l5.7338-0.51993-3.6816-2.667c-4.7373-3.4317-6.7017-7.3309-7.2446-14.38-0.37261-4.8378-0.11261-6.1476 1.7764-8.9486 2.815-4.1741 8.0331-6.7836 12.697-6.3493 2.851 0.2655 3.1831 0.47613 1.679 1.0648-6.2532 2.4474-8.1777 3.7069-9.8467 6.4442-2.1005 3.4451-2.2964 8.0446-0.54967 12.903 1.4502 4.0334 9.4769 10.804 14.367 12.119 5.0744 1.3646 15.93 2.8403 21.052 2.862 2.4188 0.0102 4.6877 0.48761 5.042 1.0609 1.2973 2.0991-2.0754 2.8045-10.846 2.2685-4.8984-0.29936-13.194-0.79858-18.436-1.1094-15.196-0.90108-20.002 0.91686-20.002 7.5656 0 4.4499 0.82936 6.1704 2.9744 6.1704 1.01 0 2.7578 0.52734 3.8841 1.1719 2.0157 1.1535 40.036 2.6358 50.798 1.9804 2.5781-0.15701 9.0722-0.56726 14.431-0.91166z"/>
</svg>
