<?xml version="1.0" encoding="UTF-8" standalone="no"?>
<svg id="svg2" xmlns:rdf="http://www.w3.org/1999/02/22-rdf-syntax-ns#" xmlns="http://www.w3.org/2000/svg" height="225" viewBox="0 0 225 225" width="225" version="1.1" xmlns:cc="http://creativecommons.org/ns#" xmlns:dc="http://purl.org/dc/elements/1.1/">
 <path id="path4138" style="fill:#fff" d="m76.394 189.68c0.77781-3.276 12.154-57.455 12.154-57.884 0-0.21517-13.408-0.39122-29.796-0.39122-23.455 0-29.709-0.23943-29.388-1.125 0.22464-0.61875 2.1593-9.5234 4.2992-19.788l3.891-18.666 29.76-0.237 29.761-0.237 4.725-22.5c2.5967-12.375 5.3632-25.436 6.1478-29.025l1.4265-6.525h19.739c10.856 0 19.722 0.10125 19.702 0.225-0.0199 0.12375-2.7715 13.185-6.1145 29.025l-6.0783 28.8 29.515 0.23713c16.233 0.13042 29.515 0.58946 29.515 1.0201 0 0.68299-6.3792 31.304-7.6597 36.768l-0.4746 2.025h-29.585-29.585l-0.50799 2.025c-0.27939 1.1138-2.9736 13.77-5.9872 28.125-3.0135 14.355-5.7078 27.011-5.9872 28.125-0.50747 2.0229-0.52814 2.025-20.228 2.025h-19.72l0.48079-2.025zm31.395-8.55c0.25473-0.86625 2.519-11.498 5.0318-23.625 2.5128-12.128 5.1943-24.986 5.9589-28.575l1.3902-6.525h29.578c27.382 0 29.614-0.11693 30.07-1.575 0.46911-1.5014 4.1292-18.94 4.1292-19.674 0-0.19302-13.19-0.35093-29.311-0.35093-27.49 0-29.282-0.0978-28.851-1.575 0.25266-0.86625 0.71873-3.6 1.0357-6.075 0.5401-4.2173 8.9732-45.836 9.9844-49.275 0.42128-1.4326-0.43183-1.575-9.4368-1.575-8.6491 0-9.9595 0.19901-10.371 1.575-0.25915 0.86625-2.7109 12.51-5.4482 25.875-2.7374 13.365-5.4525 25.819-6.0335 27.675l-1.0565 3.375h-29.556c-16.256 0-29.558 0.30375-29.561 0.675-0.0025 0.37125-0.97181 5.2312-2.1539 10.8l-2.1492 10.125h29.251 29.251l-0.49725 2.025c-0.27348 1.1138-0.75848 4.2525-1.0778 6.975-0.51812 4.418-8.8182 45.78-9.9783 49.725-0.42128 1.4326 0.43184 1.575 9.4368 1.575 8.6521 0 9.9584-0.19852 10.363-1.575z"/>
</svg>
