<?xml version="1.0" encoding="UTF-8" standalone="no"?>
<svg id="svg2" xmlns:rdf="http://www.w3.org/1999/02/22-rdf-syntax-ns#" xmlns="http://www.w3.org/2000/svg" height="225" viewBox="0 0 225 225" width="225" version="1.1" xmlns:cc="http://creativecommons.org/ns#" xmlns:dc="http://purl.org/dc/elements/1.1/">
 <path id="path4138" style="fill:#fff" d="m52.19 200.9c-8.5041-4.7143-11.511-11.154-8.1724-17.505 0.70269-1.3367 7.4864-8.4972 15.075-15.912 7.5886-7.415 33.669-33.229 57.957-57.364 34.077-33.863 44.795-44.01 46.944-44.439 5.491-1.0982 13.854 3.6527 16.942 9.6246 2.4166 4.6731 1.7 8.5049-2.4696 13.206-8.12 9.161-104.15 105.05-110.22 110.07-3.8285 3.1631-7.3069 5.3282-8.55 5.3218-1.1527-0.006-4.5258-1.3578-7.4958-3.0042zm12.832-7.8405 3.7347-4.1054-1.6623-2.7334c-0.97053-1.5959-3.208-3.3519-5.3765-4.2196-4.7771-1.9114-5.7043-1.8713-7.0638 0.30562-1.0064 1.6115-0.78746 1.951 2.1772 3.375 3.8602 1.8541 5.675 4.227 4.2913 5.6106-0.63594 0.63595-1.8853 0.2199-3.9796-1.3252-3.2553-2.4017-5.8114-2.8756-6.8085-1.2623-1.3662 2.2106 7.6359 10.512 9.8882 9.1189 0.58558-0.36231 2.7453-2.5062 4.7994-4.7642zm50.642-52.003c14.094-14.525 25.751-26.745 25.903-27.157 0.54565-1.4722-6.5135-5.3843-9.7158-5.3843-2.9709 0-5.2837 2.1137-36.728 33.566l-33.557 33.566 3.1058 1.481c1.7082 0.81457 4.2558 2.9302 5.6615 4.7014l2.5557 3.2203 8.5742-8.7923c4.7158-4.8358 20.106-20.676 34.2-35.201zm58.401-57.896c0.76789-0.23802 1.275-1.5953 1.275-3.4126 0-3.8385-3.651-7.2336-7.7752-7.2302-2.5089 0.0021-4.6456 1.7756-16.788 13.935l-13.913 13.933 4.9131 4.4373 4.9131 4.4373 13.05-12.852c7.1775-7.0687 13.624-13.03 14.325-13.247zm-40.909-5.0202c-1.2493-7.4527-3.2413-14.291-4.769-16.373-2.8473-3.8793-7.8965-7.3492-12.345-8.4842-2.3816-0.60755-4.4662-1.5129-4.6326-2.0118-0.16631-0.49894 1.6858-1.4167 4.1159-2.0395 9.8334-2.5202 17.516-10.514 18.314-21.659 0.24348-3.403 1.2651-6.2539 1.6104-6.4672 0.34527-0.21339 0.59523 2.8183 1.2153 6.8692 1.3094 8.5536 1.0984 11.433 5.4974 16.075 4.0616 4.286 6.0692 3.8135 11.555 4.6361 5.1009 0.76493 5.0868 2.0915-0.0403 3.8006-7.7468 2.5823-15.373 12.256-16.855 21.379-1.0464 6.4438-1.4023 7.65-2.2572 7.65-0.46314 0-1.0967-1.5188-1.4078-3.375zm3.5623-18.634c1.292-2.2047 4.1695-4.7056 5.2449-5.2804 4.5626-2.4391 2.3236-1.7326-1.531-4.5325-2.7586-2.0038-3.3153-3.6674-3.9134-4.6286-1.4853-2.3866-1.9418-3.2384-4.8454 1.02-1.2719 1.8654-4.1136 3.3936-5.4952 4.0946l-2.5121 1.2745 3.4275 2.7544c1.8851 1.5149 4.2214 4.2286 5.1917 6.0304 0.97033 1.8018 1.7282 2.0882 1.8161 2.0882s1.3249-0.61604 2.6169-2.8207z"/>
</svg>
