<?xml version="1.0" encoding="UTF-8" standalone="no"?>
<svg id="svg4149" xmlns:rdf="http://www.w3.org/1999/02/22-rdf-syntax-ns#" xmlns="http://www.w3.org/2000/svg" height="63.5mm" width="63.5mm" version="1.1" xmlns:cc="http://creativecommons.org/ns#" xmlns:dc="http://purl.org/dc/elements/1.1/" viewBox="0 0 225 225">
 <g id="layer1" transform="translate(-211.43 -496.66)">
  <path id="path4190" style="fill:#fff" d="m395.82 694.86c-10.862-2.631-19.449-8.2738-28.741-18.886-14.704-16.794-28.467-45.969-36.514-77.4-1.3939-5.445-2.8189-10.229-3.1667-10.632-0.75492-0.87359-18.753 3.8101-37.578 9.7791-0.69114 0.21915 1.0021 2.569 4.2513 5.8999 2.97 3.0446 5.6404 6.2933 5.9343 7.2192 0.77236 2.4335 2.6218 2.097 8.535-1.5528 5.9277-3.6588 7.8739-3.6321 15.503 0.21237 3.5474 1.7876 4.275 2.5771 4.275 4.6389 0 5.4689-5.2916 8.6887-18.9 11.5-4.2075 0.86927-7.9311 1.8177-8.2746 2.1077-0.34351 0.28995-1.0731 3.3622-1.6214 6.8272-0.54826 3.465-1.2224 7.2112-1.498 8.325-0.71851 2.9031 0.89148 2.5881 7.8257-1.5315 6.7234-3.9943 18.835-14.62 22.782-19.987 1.4316-1.9466 2.7978-3.3443 3.0361-3.106 0.23831 0.23829-0.27215 2.5858-1.1343 5.2166-4.53 13.823-14.002 26.967-25.288 35.091-7.6536 5.5095-23.648 15.488-30.084 18.77-2.1966 1.1198-5.547 3.7993-7.4453 5.9544-2.8341 3.2175-4.0136 3.9184-6.5942 3.9184-4.2207 0-7.829-3.6978-9.6754-9.9153-2.0562-6.9241-1.8042-10.802 1.6452-25.308 4.6544-19.573 4.6714-19.792 1.8646-24.033-1.316-1.9885-2.6029-5.183-2.8598-7.0988-0.38469-2.868-0.039-3.9922 1.957-6.3644 1.3333-1.5846 2.7849-2.881 3.2257-2.881 0.44081 0 2.9548 2.1262 5.5865 4.725 2.6318 2.5988 6.4876 6.1741 8.5685 7.9452 2.8509 2.4264 3.7835 3.8701 3.7835 5.8569 0 2.3804-4.4197 17.123-7.3192 24.414-0.63225 1.5899-0.94478 3.0954-0.6945 3.3457 0.25027 0.25028 3.6745-0.69139 7.6094-2.0926l7.1543-2.5476 0.0396-6.648c0.0218-3.6564 0.60791-13.004 1.3025-20.773l1.2629-14.124-2.159-4.6096c-1.1875-2.5353-2.4756-4.8053-2.8626-5.0444-0.38695-0.23915-4.0515 0.64182-8.1435 1.9577-4.8354 1.555-10.343 2.5579-15.734 2.8649-7.7198 0.43964-8.6427 0.30149-13.34-1.9968-2.7757-1.358-6.7139-4.0551-8.7517-5.9936-3.4656-3.2967-3.6076-3.6219-2.1973-5.0322 1.2887-1.2887 2.1776-1.3705 6.1199-0.56291 3.8443 0.78749 5.6072 0.65543 10.588-0.79312 3.2864-0.95585 8.2028-2.3607 10.925-3.122 2.7225-0.76122 7.5825-2.16 10.8-3.1083 3.2175-0.94836 16.528-4.727 29.579-8.397s23.925-6.868 24.163-7.1067c0.23868-0.2387-0.41582-6.3692-1.4545-13.623-1.0386-7.2542-1.8884-14.179-1.8884-15.389 0-1.4585-1.5166-3.6693-4.5-6.56-2.475-2.3981-4.5-4.985-4.5-5.7487 0-6.8755 10.143-9.1754 19.672-4.4607 5.7428 2.8414 17.229 13.567 17.224 16.083-0.002 0.93074-0.60231 5.3372-1.3343 9.7922-2.8045 17.069-2.2809 17.392 11.296 6.975 4.2058-3.2272 6.7474-3.5621 14.523-1.9141 5.9653 1.2644 10.976 3.7588 12.81 6.3773 0.79445 1.1342 1.4095 3.86 1.4095 6.2467 0 5.0792-2.3851 7.4796-8.3515 8.405-6.0679 0.94112-26.043 4.8601-28.998 5.6893-2.3035 0.64627-2.6632 1.144-2.4494 3.3892 1.1938 12.535 6.355 31.641 11.125 41.186 5.2687 10.542 12.346 20.106 20.693 27.963 4.5177 4.2528 8.7562 7.7324 9.4187 7.7324 1.3619 0 4.9727-11.333 6.707-21.05 1.0326-5.786 0.76525-21.213-0.5477-31.6l-0.45506-3.6 1.9267 3.5232c6.7494 12.342 12.863 33.162 16.012 54.527 0.98488 6.6825 2.469 13.491 3.2981 15.129 0.82907 1.6385 1.7137 4.5173 1.9659 6.3974 0.38298 2.8553 0.0324 3.8951-2.1288 6.314-2.3315 2.6094-3.1646 2.9253-8.4264 3.1951-3.2115 0.16465-8.0666-0.24017-10.789-0.8996zm-135.9-115.63c0-0.46205 0.91125-1.3181 2.025-1.9024 4.2007-2.2036 15.975-10.127 15.975-10.751 0-0.3575-1.5048-0.93229-3.3439-1.2773-4.5413-0.85195-7.3447-2.4352-10.945-6.1815-2.4209-2.5191-2.9207-3.6327-2.4579-5.4768 0.57148-2.277 0.71653-2.3148 8.8888-2.317 7.9779-0.002 11.346-0.6682 28.696-5.6744 7.7495-2.2361 18.762 3.0762 18.762 9.0506 0 3.8547-2.9198 5.9263-13.05 9.2586-4.95 1.6283-11.835 4.1446-15.3 5.5917-5.2284 2.1836-10.951 4.2454-28.125 10.134-0.61875 0.21214-1.125 0.008-1.125-0.45438zm121.31-24.294c-1.342-0.4045-4.9318-2.6984-7.9774-5.0976-3.0455-2.3992-8.6031-5.9822-12.35-7.9622-8.0113-4.2334-9.3693-5.8574-7.0453-8.4254 3.6609-4.0452 23.317-5.7167 29.363-2.4968 9.3588 4.9846 13.147 13.223 9.4069 20.456-2.0438 3.9523-5.9619 5.1646-11.397 3.5265z"/>
 </g>
</svg>
