<?xml version="1.0" encoding="UTF-8" standalone="no"?>
<svg id="svg2" xmlns:rdf="http://www.w3.org/1999/02/22-rdf-syntax-ns#" xmlns="http://www.w3.org/2000/svg" height="225" viewBox="0 0 225 225" width="225" version="1.1" xmlns:cc="http://creativecommons.org/ns#" xmlns:dc="http://purl.org/dc/elements/1.1/">
 <path id="path4138" style="fill:#fff" d="m94.855 198.95c-7.8617-2.0012-11.204-8.2899-17.508-32.942-2.5317-9.9-5.9452-22.658-7.5855-28.35-1.6403-5.6925-3.8901-14.59-4.9996-19.773-1.9801-5.9653-2.2347-9.0075 0.50178-14.234 2.8238-5.3934 9.4342-11.032 23.056-19.668l8.1654-5.1764-0.55816-4.2076c-0.73896-5.5705 1.0408-12.589 4.2345-19.138 4.8932-10.033 20.11-23.847 30.066-26.972 6.8017-2.135 19.8-4.0651 26.41-2.1266 6.6748 1.9574 11.115 5.1942 14.106 10.282 2.163 3.6796 2.4983 5.1889 2.4472 11.014-0.0508 5.798-0.51047 7.702-3.2588 13.5-8.2192 17.34-16.509 28.537-34.611 33.437-5.2139 1.4114-12.056 1.8531-17.307 0.84308-10.999-2.1157-11.329-2.1172-15.673-0.0752-4.9506 2.3271-11.604 7.9938-15.178 12.927-2.8762 3.9705-3.4604 9.6854-1.3046 12.763 0.69194 0.98789 2.6702 5.4318 4.396 9.8753 1.7259 4.4435 7.8423 17.555 13.592 29.136 6.4233 12.938 10.454 22.111 10.454 23.791 0 3.9454-3.3039 10.185-6.8084 12.858-3.2718 2.4956-8.1952 3.3669-12.636 2.2364zm12.084-8.5714c2.1291-2.084 0.19203-7.5022-9.8286-27.491-5.343-10.66-10.592-21.41-11.664-23.88-3.388-7.82-8.047-22.3-8.047-25.01 0-3.3807 6.1491-10.635 15.75-18.58 10.99-9.095 11.625-9.4128 17.01-8.5169 2.5244 0.41997 8.7011 0.7664 13.726 0.76984 9.0185 0.0063 9.237-0.04482 16.941-3.9511 9.1879-4.6587 19.599-13.864 23.127-20.448 3.4652-6.4666 4.0489-13.429 1.6027-19.116-2.8726-6.6775-4.2948-7.4598-3.7776-2.0779 0.89945 9.3608-4.0104 21.409-11.681 28.663-10.238 9.6826-26.026 14.344-37.647 11.116-6.1555-1.71-9.2662-6.9064-5.3796-8.9865 1.3663-0.73121 2.5483-0.53237 5.1617 0.86834 7.12 3.8161 20.663 1.3563 30.989-5.6287 9.28-6.277 14.28-15.677 14.28-26.866 0-4.1851-0.41938-5.674-2.1721-7.7116-2.0752-2.4125-4.6257-4.5548-12.19-3.8393-5.5618 0.52604-8.9627 1.69-15.687 6.1007-8.6106 5.6483-11.567 7.8865-17.756 15.727-6.174 7.8216-11.219 11.96-8.6294 20.934l2.4874 5.4423-13.489 11.412c-14.806 12.52-18.636 14.03-20.358 18.15-1.9052 4.5597-1.6964 6.2939 2.3534 19.551 5.4253 17.759 20.726 62.602 22.142 64.894 0.73192 1.1843 11.252-0.0806 12.734-1.531z"/>
</svg>
