<?xml version="1.0" encoding="UTF-8" standalone="no"?>
<svg id="svg2" xmlns:rdf="http://www.w3.org/1999/02/22-rdf-syntax-ns#" xmlns="http://www.w3.org/2000/svg" height="270" viewBox="0 0 270 270" width="270" version="1.1" xmlns:cc="http://creativecommons.org/ns#" xmlns:dc="http://purl.org/dc/elements/1.1/">
 <path id="path4138" style="fill:#fff" d="m154.47 217.04c-2.8965-3.1955-11.311-7.3643-19.473-9.648-11.77-3.2931-20.84-7.7297-24.263-11.869-4.8161-5.823-7.1417-16.963-5.806-27.811l0.75843-6.1599 0.53601 9.9c0.41569 7.6778 0.97622 10.747 2.4972 13.673 3.5859 6.8984 11.499 11.242 27.628 15.165 10.788 2.6237 13.245 3.6514 19.354 8.0932 3.8562 2.8041 4.3464 2.9242 10.067 2.465 3.3074-0.26548 6.6605-0.23436 7.4515 0.0691 1.296 0.49732 1.2736 0.87241-0.22579 3.7951l-1.6639 3.2432-7.755 0.28691c-6.3205 0.23383-8.0046 0.0116-9.1042-1.2016zm17.921-9.0671c-2.1252-3.4386-0.15005-9.7962 6.5845-21.194 4.1786-7.0722 6.6882-14.012 9.2128-25.476 1.6972-7.7065 1.7225-7.7518 1.37-2.4517-0.48238 7.2533-5.2799 21.354-10.178 29.916-3.4218 5.9809-3.9267 7.5011-3.5157 10.584 0.52815 3.9611-2.1874 10.702-3.4732 8.6214zm-17.14-2.35c-5.2246-2.6538-7.1815-7.0479-4.9749-11.171 0.81318-1.5194 0.47459-1.603-4.7824-1.1811-9.2816 0.74503-14.501-3.2135-13.968-10.594 0.26001-3.6013 0.10719-3.8339-4.6527-7.0828-8.9133-6.0838-12.522-13.508-14.394-29.608-1.4817-12.745-0.74204-16.002 1.1199-4.9308 2.5086 14.916 7.372 22.447 17.93 27.764 3.3705 1.6974 6.9244 3.0861 7.8976 3.0861 2.5019 0 2.7954 0.93809 1.361 4.3496-0.92404 2.1976-1.6721 2.8516-2.8446 2.4866-0.87495-0.27232-2.1389-0.15088-2.8088 0.26986-1.5474 0.97195-0.23148 3.76 3.7693 7.9863 3.6516 3.8574 8.7125 5.2815 12.339 3.4722 2.7521-1.3729 3.2952-0.73447 1.7814 2.0942-1.3714 2.5626 2.3662 7.4054 6.9472 9.0013 4.3444 1.5136 5.7174 0.8218 3.4161-1.7211-2.6995-2.9829 0.10507-6.2886 2.9347-3.459 1.5763 1.5763 1.3187 4.3675-0.71014 7.695-1.4276 2.3414-2.3696 2.9239-4.7216 2.9195-1.616-0.003-4.1532-0.62271-5.6382-1.377zm-7.425-18.405c-2.1546-0.90945-2.684-3.9169-1.1112-6.3127 0.65617-0.99957 1.0662-1.0726 1.5795-0.2813 1.1938 1.8401 4.9075 2.7609 13.835 3.4302 4.748 0.35598 9.1158 0.94573 9.7061 1.3106 0.59031 0.36484-2.6001 0.92408-7.0898 1.2428-4.4897 0.31869-9.6777 0.77874-11.529 1.0223-1.8512 0.2436-4.277 0.0582-5.3908-0.41184zm-45.95-13.07c-0.2689-13.838-0.23845-13.765-5.5952-13.251-3.9661 0.3811-4.6547 0.15714-7.1313-2.3195-3.286-3.28-3.618-7.67-1.005-13.23l1.6917-3.6-0.40835 3.15c-0.55256 4.2624 2.2042 8.6212 5.9766 9.4498 3.5633 0.78263 3.9543 0.36508 3.2372-3.4572-0.816-4.35-3.79-8.4-9.536-12.98-10.872-8.67-16.494-14.17-18.095-17.69-2.133-4.7-2.162-9.66-0.072-12.24l1.6329-2.0166-0.36796 3.1518c-0.31025 2.6575 0.13074 3.6505 2.8117 6.3315 3.1049 3.1049 11.446 6.9504 15.075 6.9504 1.6982 0 1.7255-0.13109 0.41623-2.0003-1.8744-2.676-1.8814-16.477-0.01197-23.655 1.5128-5.8081 6.2347-16.03 8.1326-17.605 0.65306-0.54199-0.22228 1.7809-1.9452 5.162-5.1485 10.104-6.1074 24.346-1.9915 29.578 2.166 2.7536 3.6679 2.806 5.5705 0.19415 0.8113-1.1138 0.4634 0.0726-0.77311 2.6363s-2.6609 4.9164-3.1653 5.2281c-1.7421 1.0767-0.90593 2.0624 2.2521 2.6548 1.7431 0.327 4.5781 1.8315 6.3 3.3434 3.6988 3.2476 4.0474 6.466 1.3009 12.012-1.4804 2.9897-1.6988 3.1664-1.2884 1.0421 0.94933-4.9137-6.9512-10.031-18.327-11.872l-3.306-0.53 2.25 1.9201c1.2375 1.056 4.4256 3.7801 7.0846 6.0535 4.8033 4.1066 8.1578 9.6386 8.1957 13.515 0.0252 2.5791 1.5067 2.6293 2.3163 0.0784 0.52872-1.6658 0.73287-1.741 1.4155-0.52129 0.4966 0.88738 0.37657 2.3863-0.31803 3.9716-0.63736 1.4546-1.3339 8.527-1.6247 16.496-0.49084 13.451-0.51594 13.596-0.70144 4.05zm70.93-0.44c-0.7425-0.48704-4.4237-0.89173-8.1805-0.89931-6.3297-0.0128-6.9027-0.17211-7.8144-2.1732-0.54114-1.1877-0.75894-3.0196-0.48401-4.071 0.4631-1.7709 0.58327-1.7975 1.6333-0.36152 1.007 1.3772 1.6547 1.4297 5.8082 0.47097 2.5711-0.59348 6.2639-1.0791 8.2061-1.0791 2.1358 0 3.5313-0.42447 3.5313-1.0741 0-2.1362-9.6498-10.292-18.412-15.562-4.9258-2.9624-10.552-6.904-12.502-8.759l-3.5455-3.3728 0.48855-7.1278 0.48855-7.1278-3.1356-3.0132c-4.5013-4.3256-5.7468-7.2543-6.1903-14.556l-0.4-6.45 1.1492 4.95c1.3277 5.719 2.1662 7.3359 3.6441 7.0263 0.58142-0.12178 2.6011 1.2099 4.4882 2.9592s8.2435 5.9482 14.125 9.3309c16.674 9.5892 22.834 16.926 24.138 28.747l0.6053 5.4865 2.1682-3.04c3.0204-4.2349 3.4885-10.403 1.1848-15.611-2.739-6.192-7.4235-10.746-19.407-18.869-16.089-10.904-20.974-16.616-22-25.72l-0.44093-3.9119-2.3522 2.1208c-5.2665 4.7483-5.156 4.7421-7.6832 0.42963-1.28-2.176-2.32-4.77-2.32-5.764 0-3.4061-3.0892-4.987-11.46-5.8645-4.3395-0.45494-9.2938-1.107-11.01-1.449-4.1202-0.82128-7.2435-5.3488-7.195-10.43l0.03519-3.6919 1.1918 2.7c2.4364 5.5196 4.1757 6.2493 16.155 6.7779 13.586 0.59946 15.27 1.3567 14.843 6.6728-0.29792 3.7029-0.24009 3.8013 1.5452 2.6311 2.2064-1.4461 5.7953-7.5518 5.7953-9.8593 0-2.9184 1.7458-0.07129 2.8774 4.6926l1.0741 4.5216 2.7492-1.2344c5.6306-2.528 7.096-3.4429 8.0603-5.0318 0.80983-1.3345 0.55072-2.0107-1.4309-3.7344-3.0483-2.6515-10.148-3.8096-28.18-4.5964-15.18-0.6624-17.884-1.5157-19.871-6.2706-1.572-3.7622-1.633-6.1213-0.0864-3.3364 2.6857 4.836 4.0542 5.1338 25.807 5.6172 18.317 0.40704 20.551 0.62618 23.4 2.2956 3.7467 2.1952 4.3098 4.5862 2.3119 9.8177-1.7235 4.5129-5.1297 7.9765-9.7369 9.9011-4.135 1.7273-4.3284 3.619-1.0439 10.21 3.0367 6.0939 8.8829 11.105 21.057 18.048 17.176 9.7956 23.477 17.376 22.198 26.705-0.69064 5.0388-4.0857 12.354-8.2875 17.857-2.6748 3.5031-3.0902 4.6435-2.6146 7.1784 0.70096 3.7365-2.6769 8.4135-4.9836 6.9004zm5.4912-14.638c0.40319-8.9539-3.0458-15.189-12.114-21.901-4.83-3.57-20.65-12.97-21.84-12.97-0.19 0-0.34 1.43-0.34 3.18 0 4.2306 3.8457 8.2468 16.649 17.387 7.0355 5.0228 10.801 8.4066 13.015 11.697 3.417 5.0776 4.4885 5.6809 4.627 2.6053zm-51.364-23.895c-0.0354-6.1672-1.2602-8.3428-8.8575-15.734-4.3586-4.2404-6.3952-6.9294-6.6709-8.8078-0.41698-2.8411 2.7744-11.897 4.9643-14.087 1.0503-1.0503 1.175-0.81067 0.82383 1.5822-0.36239 2.4691 0.13118 3.2995 3.9677 6.6755l4.3816 3.8556-1.1046 4.13c-1.0629 3.9741-0.99528 4.3058 1.7918 8.7893 2.3749 3.8204 2.8933 5.5693 2.8794 9.7129-0.009 2.7795-0.49654 5.8636-1.0826 6.8536-0.91466 1.545-1.0695 1.1243-1.093-2.9697zm-4.8071-22.991c-0.70695-1.0666-2.0022-2.0811-2.8783-2.2544-1.404-0.2778-1.3565 0.0169 0.40135 2.4856 2.2322 3.1349 4.5638 2.9173 2.477-0.23118zm69.862 19.436c1.7518-3.5286 0.69297-21.01-1.5536-25.65-1.8348-3.7899-2.8394-4.22-3.6788-1.575-0.81577 2.5703-2.0762 2.2227-2.448-0.675-0.32726-2.5502 1.4876-7.425 2.7643-7.425 1.1583 0 4.4405 3.8557 5.3631 6.3 0.46704 1.2375 1.1477 6.0975 1.5125 10.8 0.36483 4.7025 1.0326 9.2516 1.484 10.109 0.58358 1.1088 0.15963 2.8636-1.4677 6.075-1.2586 2.4837-2.4944 4.5158-2.7463 4.5158-0.25186 0 0.095-1.1138 0.77077-2.475zm-4.1671-5.2359c0.42971-3.2936 0.17453-3.9351-2.5439-6.3942-10.735-9.7112-12.761-11.744-13.9-13.947-0.69927-1.3522-1.2621-3.5925-1.2507-4.9783 0.0204-2.4947 0.0403-2.4858 1.9983 0.89279 1.2668 2.1858 4.7803 5.332 9.7744 8.7526 4.2882 2.9371 8.0465 5.9908 8.3517 6.7861 0.98562 2.5685 0.52 6.1733-1.214 9.3988l-1.6934 3.15 0.47763-3.6609zm-31.43-22.5c-1.7085-0.92688-2.475-2.0582-2.475-3.653 0-3.9243 2.6044-8.2229 5.6188-9.2737 3.4935-1.2178 3.9023-0.78939 2.4932 2.6125-0.86 2.044-1.72 2.724-3.48 2.724h-2.3408l2.025 2.025c1.546 1.546 3.0625 2.025 6.4112 2.025 3.8763 0 4.2895 0.18071 3.5544 1.5544-1.8576 3.471-7.3665 4.3946-11.816 1.9809zm23.85-11.145c-2.5445-4.4562-2.5295-4.8656 0.23285-6.344 2.195-1.1747 7.5672-10.515 7.7152-13.415 0.0402-0.78719 0.62943-0.21625 1.3094 1.2688 1.5224 3.3248 1.6616 9.9517 0.29505 14.041-1.0922 3.2679-4.9892 8.0138-6.5709 8.0024-0.52614-0.0036-1.8679-1.6028-2.9816-3.5533zm-30.105-2.4872c-1.2772-0.3065-1.3648-0.72887-0.53053-2.5598 0.83-1.82 1.65-2.198 4.76-2.198 5.4398 0 11.999-2.2201 14.971-5.0671 2.0107-1.9263 2.5771-3.2742 2.5744-6.1263-0.004-5.223-2.6085-8.8945-8.2455-11.627-4.6427-2.2507-17.362-4.9851-24.044-5.1691-6.342-0.17468 0.74147-1.5254 8.4429-1.6099 15.402-0.16906 26.55 5.7319 26.55 14.053 0 8.1703-6.4131 17.122-13.563 18.93-5.3218 1.3464-9.0582 1.8148-10.917 1.3687zm19.943-3.7844c0.50975-0.9525 3.1222-2.7369 5.8054-3.9653 8.2809-3.7911 10.098-9.4558 5.5324-17.246-1.31-2.238-2.02-4.063-1.59-4.063 1.2654 0 4.4976 3.8458 5.5363 6.5875 2.77 7.342-6.76 20.412-14.89 20.412-1.0268 0-1.1156-0.38778-0.39624-1.7318z"/>
</svg>
