<?xml version="1.0" encoding="UTF-8" standalone="no"?>
<svg id="svg2" xmlns:rdf="http://www.w3.org/1999/02/22-rdf-syntax-ns#" xmlns="http://www.w3.org/2000/svg" height="225" viewBox="0 0 225 225" width="225" version="1.1" xmlns:cc="http://creativecommons.org/ns#" xmlns:dc="http://purl.org/dc/elements/1.1/">
 <path id="path4138" style="fill:#fff" d="m88.587 212.55c2.8379-9.1562 3.6106-21.052 1.8261-28.111-0.62917-2.489-0.74216-2.5302-5.2532-1.9194-2.5356 0.34333-7.0402 1.3815-10.01 2.3071-10.504 3.2734-11.684 2.1757-12.458-11.592-0.4321-7.6879-1.0464-10.572-3.6418-17.1-1.7171-4.3187-3.6481-10.437-4.2911-13.597-1.3001-6.3891-1.7064-5.6248 5.4579-10.268 6.5561-4.2486 6.8328-5.1976 6.8328-23.436 0-15.947 0.06025-16.474 2.4319-21.302 6.0878-12.392 18.37-19.295 36.351-20.431 9.2788-0.58618 15.021 0.45437 23.317 4.2253 9.7455 4.4299 19.641 14.317 22.813 22.794 4.534 12.118 4.2969 35.684-0.47259 46.961-7.2238 17.079-9.5948 30.613-9.5 54.225l0.0732 18.225-5.5566 0.008c-3.0561 0.005-15.239 0.27143-27.074 0.59274l-21.517 0.5842 0.67188-2.1677zm44.756-18.141c-0.466-18.131 1.7787-30.145 8.9909-48.119 9.5442-23.786 7.9588-44.519-4.6212-60.433-4.2413-5.3657-11.502-9.2512-21.426-11.466-12.383-2.764-24.201 0.23709-33.609 8.534-6.1653 5.4376-7.2106 8.8164-8.057 26.043-0.39683 8.0767-1.2134 16.177-1.8146 18-0.60119 1.8233-3.5229 5.8464-6.4926 8.94l-5.3995 5.6249 1.6153 5.6251c0.88842 3.0938 3.1801 10.375 5.0925 16.181 1.9125 5.8058 3.4772 11.429 3.4772 12.496 0 1.8634 0.25753 1.9163 6.525 1.34 15.71-1.4445 20.259-1.6192 20.767-0.79774 0.29285 0.47384 0.62066 7.4078 0.72846 15.409l0.19599 14.547 17.167 0.0009 17.167 0.0009-0.30651-11.926zm36.18-101.94c-0.52231-1.3611-0.24222-2.9788 1.0706-6.1833 0.60497-1.4767 0.17024-1.3891-3.352 0.675-5.0976 2.9874-5.7853 2.9662-7.4377-0.22913l-1.345-2.6009 7.9647-5.0491c8.5529-5.422 11.16-6.0876 12.685-3.2384 0.75211 1.4053 0.55526 2.7461-0.87925 5.9891-1.0166 2.2981-1.7421 4.2725-1.6124 4.3874 0.12976 0.11498 5.7034-1.9416 12.386-4.5702 12.604-4.9578 19.669-6.8889 18.544-5.069-1.5547 2.5156-32.361 17.252-36.065 17.252-0.78947 0-1.6708-0.61355-1.9586-1.3634zm-109.51-27.637c-3.57-4.326-6.014-8.131-6.014-9.363 0-3.2346 2.6908-4.1266 7.7856-2.5808 2.4004 0.72826 4.4438 1.3285 4.541 1.3338 0.09715 0.0054-1.6534-3.3315-3.8901-7.4153-10.819-19.753-13.308-28.602-4.7406-16.852 4.29 5.8831 15.983 25.588 16.19 27.283 0.4215 3.4517-1.4809 4.6456-5.1684 3.2436-3.4642-1.3171-3.5713-0.46262-0.42106 3.3592 1.542 1.8708 2.8037 3.6865 2.8037 4.035 0 0.34851-1.1413 1.4463-2.5363 2.4396l-2.5363 1.806-6.0137-7.2891zm73.886-3c-2.2152-1.2022-2.3529-1.5616-1.452-3.789 0.54741-1.3534 2.0537-5.2478 3.3473-8.6541 1.3019-3.4282 3.2266-6.7727 4.311-7.491 1.7554-1.1628 2.1431-1.1136 3.7298 0.47312 0.97393 0.97393 2.0591 3.4774 2.4115 5.5633 0.78106 4.6231 0.72492 4.6745 8.8483-8.1021 6.9374-10.911 10.161-15.04 11.05-14.151 1.5617 1.5617-16.068 34.301-19.096 35.463-1.8449 0.70795-3.6392-1.1172-4.3817-4.457l-0.64579-2.9048-2.1451 4.725c-1.1798 2.5988-2.4568 4.7088-2.8377 4.689-0.38091-0.01982-1.7938-0.63372-3.1399-1.3642zm-35.226-4.7c-0.23792-0.38495-0.94528-4.8082-1.5719-9.8294-0.9345-7.488-0.92737-9.3849 0.03969-10.55 1.8991-2.2882 4.1316-1.6615 7.5467 2.1187l3.1976 3.5393 0.44263-4.6643c0.24344-2.5654 0.86215-9.4895 1.3749-15.387 0.91274-10.498 2.2199-14.795 3.1428-10.332 0.9853 4.7649 1.2913 16.254 0.71402 26.811-0.49883 9.1222-0.89114 11.332-2.1523 12.125-1.237 0.77726-2.1071 0.43962-4.3955-1.7056l-2.8533-2.6747 0.56723 5.08c0.46329 4.1491 0.30698 5.1798-0.85306 5.625-1.9816 0.76041-4.6835 0.67992-5.1994-0.15488z"/>
</svg>
