<?xml version="1.0" encoding="UTF-8" standalone="no"?>
<svg id="svg2" xmlns:rdf="http://www.w3.org/1999/02/22-rdf-syntax-ns#" xmlns="http://www.w3.org/2000/svg" height="225" viewBox="0 0 225 225" width="225" version="1.1" xmlns:cc="http://creativecommons.org/ns#" xmlns:dc="http://purl.org/dc/elements/1.1/">
 <path id="path4138" style="fill:#fff" d="m123.87 197.85c-3.24-1.09-11.16-8.44-19.08-17.72-16.318-19.13-27.124-28.28-42.52-36-13.227-6.64-18.71-10.67-19.383-14.26-0.77-4.1 1.253-8.53 5.964-13.06 2.135-2.05 4.184-3.73 4.554-3.73s1.8994-2.5702 3.3986-5.7117c3.686-7.72 8.217-12.43 16.266-16.895 9.811-5.443 13.111-8.35 15.706-13.834 3.479-7.355 7.056-9.156 12.522-6.305 1.418 0.739 2.722 1.344 2.902 1.344 0.82221 0 9.7169-14.183 15.24-24.3 8.4991-15.57 11.867-20.7 13.589-20.7 2.0748 0 1.1468 5.1154-2.9196 16.093-5.9313 16.012-15.602 32.301-24.904 41.945-4.8413 5.0195-5.1786 5.6406-4.6494 8.5621 1.451 8.011 9.243 13.652 19.13 13.848 5.058 0.10045 5.1352 0.064 4.8603-2.2957-0.35979-3.0889 2.9978-9.6656 9.0086-17.646 8.2805-10.994 27.397-29.875 36.518-36.069l5.6442-3.8329-4.4699 6.1227c-2.4584 3.3675-8.3266 10.548-13.04 15.956-7.6066 8.7277-15.311 18.785-19.806 25.854l-1.5182 2.3877 2.8454-0.13774c2.0881-0.10108 3.3059 0.46872 4.5754 2.1408 1.7107 2.2533 1.7077 2.3883-0.27103 12.15-1.4575 7.19-2.0132 13.172-2.0458 22.021-0.0419 11.379 0.13524 12.664 2.7932 20.25 3.0498 8.7046 6.5104 15.48 9.1071 17.83 1.6108 1.4578 6.0456 2.7333 19.363 5.5694 6.1456 1.3087 7.1401 1.7967 7.9458 3.8985 1.4047 3.6645 1.4457 14.244 0.0606 15.632-0.90006 0.90163-7.419 1.21-28.35 1.3409-14.95 0.0935-28.014-0.10898-29.032-0.45zm53.783-8.5343c1.2795-2.0132 0.73001-5.0657-1.087-6.0382-1.3608-0.72827-2.8548-0.59223-6.075 0.55314-5.4864 1.9514-30.115 2.8359-37.122 1.3331-12.17-2.62-21.9-9.89-33.076-24.75-16.988-22.57-34.248-41.18-39.391-42.47-1.9518-0.48986-3.0103 0.023-5.974 2.8946-6.2347 6.0409-6.2626 5.9436 3.079 10.732 4.5714 2.3433 11.552 6.3864 15.512 8.9848 8.7135 5.7174 25.206 21.758 39.299 38.223l10.4 12.15 26.872-0.26429c19.751-0.19424 27.054-0.55197 27.562-1.35zm-11.046-6.9174c-0.77743-0.45484-3.8941-1.2265-6.926-1.7147-6.9334-1.1166-8.3612-1.895-12.157-6.6275-12.971-16.17-18.056-38.89-12.993-58.051 1.2097-4.5788 2.0742-8.325 1.9212-8.325-0.15302 0-1.6237 0.79387-3.2683 1.7642-10.83 6.3897-28.476 2.7844-35.406-7.2337-2.4575-3.5527-2.6551-4.4363-2.6349-11.786 0.018-4.371-0.126-7.946-0.315-7.946-0.18823 0-3.438 3.1582-7.2218 7.0183-3.7837 3.8601-9.1311 8.275-11.883 9.811-6.167 3.44-10.746 8.46-10.746 11.78 0 1.9331 1.3556 3.5747 6.4772 7.8437 7.2418 6.0362 18.958 19.521 29.323 33.749 10.592 14.54 13.566 17.781 20.685 22.542 7.4298 4.9694 10.382 6.0136 20.014 7.0781 9.6018 1.0613 26.898 1.1286 25.137 0.0979z"/>
</svg>
