<?xml version="1.0" encoding="UTF-8" standalone="no"?>
<svg id="svg2" xmlns:rdf="http://www.w3.org/1999/02/22-rdf-syntax-ns#" xmlns="http://www.w3.org/2000/svg" height="225" viewBox="0 0 225 225" width="225" version="1.1" xmlns:cc="http://creativecommons.org/ns#" xmlns:dc="http://purl.org/dc/elements/1.1/">
 <path id="path4138" style="fill:#fff" d="m114.14 197.96c-8.3765-0.98749-32.042-7.303-40.183-10.723-3.4959-1.4688-12.049-6.1059-19.007-10.305-10.939-6.6008-13.72-7.8693-20.547-9.3713-10.152-2.2334-12.249-3.8638-9.3308-7.2525 0.94904-1.102 1.0628-3.0233 0.50702-8.5616-0.45578-4.5417-0.38193-7.766 0.2029-8.8588 0.50573-0.94497 0.67717-2.6837 0.38098-3.8638-0.68571-2.7321 3.615-20.246 6.2932-25.627 2.7981-5.6227 8.9097-12.197 18.296-19.683 12.005-9.5734 33.922-33.279 40.148-43.425 6.6915-10.904 8.3468-12.578 15.857-16.04 5.748-2.6494 7.3886-2.9566 19.952-3.7357 13.568-0.84134 30.424-2.8114 33.057-3.8636 1.0201-0.40766 2.0354 0.9866 3.9968 5.489 1.4461 3.3195 5.1845 9.8306 8.3075 14.469 3.123 4.6385 5.6782 9.2432 5.6782 10.233 0 4.817-2.2525 10.235-5.7645 13.866-8.1535 8.4287-24.176 8.6452-29.051 0.39255-1.3823-2.34-1.9571-2.6408-3.8786-2.0296-3.0966 0.985-14.033 0.5303-17.894-0.744-3.0325-1.0008-3.2834-0.91379-5.7906 2.0077-5.0216 5.8514-8.6366 15.207-13.708 35.476-2.7026 10.802-4.9138 19.748-4.9138 19.879 0 0.13143 2.9362-0.81215 6.525-2.0968 6.7002-2.3985 11.008-2.7594 23.784-1.9924 6.0366 0.36244 6.625 0.22976 9-2.0293 6.2013-5.8987 20.314-9.2338 36.631-8.6565 8.788 0.3109 11.785 0.77788 15.41 2.4009 4.9344 2.2094 9.7953 6.4208 11.777 10.203 1.3983 2.6691 1.7505 9.1482 0.47125 8.6697-0.44108-0.165-2.471-2.4205-4.5108-5.0122-4.7657-6.0549-9.3031-8.3568-17.729-8.994-10.136-0.7666-23.251 2.9089-28.924 8.106-2.1327 1.9538-5.6342 10.256-5.6342 13.36 0 1.7117-0.23844 1.6545-3.375-0.81045-4.8294-3.7953-8.0101-5.256-16.005-7.3501-13.898-3.6403-23.627-1.6163-30.429 6.3306-1.6574 1.9363-3.6643 3.5206-4.4598 3.5206-0.79547 0-2.448 0.4564-3.6723 1.0142-2.6018 1.1855-6.8587 0.37056-6.8587-1.313 0-0.64046 1.2426-2.354 2.7613-3.8079 3.6023-3.4485 7.6844-10.645 8.9124-15.713 0.53716-2.2168 2.7431-11.339 4.9021-20.272 4.4577-18.444 8.2745-27.523 14.463-34.407 2.2335-2.4842 4.061-4.9008 4.061-5.3701s-0.81-1.5863-1.8-2.4823c-2.2082-1.9984-2.2829-4.3048-0.25086-7.7448 1.7273-2.9241 3.546-2.9951 3.1321-0.12235-0.46634 3.2374 2.1947 8.1033 5.3136 9.7161 5.9184 3.0605 17.454-0.01276 23.296-6.2067 1.708-1.8108 3.7954-3.2923 4.6386-3.2923 0.84325 0 4.2327 2.7128 7.5321 6.0285 5.5909 5.6184 5.8863 6.112 4.3438 7.2559-1.927 1.429-6.2177 0.84526-8.4169-1.1451-2.0031-1.8127-2.6882-1.6849-2.6882 0.5016 0 2.8917 3.7289 5.8946 8.8434 7.1215 4.0917 0.98158 4.9767 0.93483 6.9649-0.36789 3.7279-2.4426 5.7846-6.7027 5.7883-11.99 0.003-4.2581-0.3546-5.1356-3.4843-8.55-1.9182-2.0927-5.3916-6.7586-7.7187-10.369-3.0476-4.7279-4.6524-6.4483-5.7374-6.1507-3.2254 0.88475-10.609 1.6043-23.779 2.3175-10.615 0.5748-15.153 1.2255-20.017 2.8701-6.2464 2.1121-6.3148 2.1709-9.9 8.5086-1.9856 3.51-7.8252 12.754-12.977 20.543-9.5601 14.453-12.337 17.462-28.883 31.298-8.0099 6.6979-15.891 16.222-19.194 23.194-2.4483 5.1689-2.7986 6.9545-3.1463 16.039-0.26339 6.8811-0.05928 10.555 0.62441 11.239 0.55864 0.55864 1.0157 1.5652 1.0157 2.2367 0 0.97405-0.4046 0.93765-2.0003-0.18-1.1001-0.77056-2.3269-1.401-2.7262-1.401-1.2355 0-0.08147 8.4564 1.2404 9.0896 4.3978 2.1063 8.2757 3.5104 9.6953 3.5104 0.90645 0 2.614 0.72922 3.7945 1.6205 1.1805 0.89126 5.0055 3.2935 8.5 5.3384 5.5943 3.2736 10.076 5.2166 29.646 12.852 10.402 4.0586 19.402 5.7378 30.15 5.6252 10.661-0.11169 23.046-2.5116 26.033-5.0448 0.77927-0.66078 4.1328-2.694 7.4523-4.5183s6.2796-3.712 6.5781-4.195c1.1324-1.8322 6.469-0.87617 10.201 1.8276 4.363 3.1606 4.817 5.7641 1.6087 9.2259-2.9076 3.1373-5.8321 4.5226-16.324 7.7323-14.349 4.3899-26.164 5.8434-37.058 4.559zm64.508-18.38c-5.9691-9.2204-11.985-16.129-18.508-21.256-5.7041-4.4827-6.839-6.5799-4.7117-8.7072 2.4084-2.4084 5.736-1.1799 11.175 4.1257 9.4021 9.1715 17.009 22.814 16.365 29.349-0.26134 2.652-0.40664 2.5338-4.3204-3.5118z"/>
</svg>
