<?xml version="1.0" encoding="UTF-8" standalone="no"?>
<svg id="svg2" xmlns:rdf="http://www.w3.org/1999/02/22-rdf-syntax-ns#" xmlns="http://www.w3.org/2000/svg" height="24" width="24" version="1.1" xmlns:cc="http://creativecommons.org/ns#" xmlns:dc="http://purl.org/dc/elements/1.1/" viewBox="0 0 24 24">
 <path id="path4" d="m0 0h24v24h-24z" fill="none"/>
 <path id="path6" style="fill:#fff" d="m11.5 9c-1.38 0-2.5 1.12-2.5 2.5s1.12 2.5 2.5 2.5 2.5-1.12 2.5-2.5-1.12-2.5-2.5-2.5zm8.5-5h-16c-1.1 0-2 0.9-2 2v12c0 1.1 0.9 2 2 2h16c1.1 0 2-0.9 2-2v-12c0-1.1-0.9-2-2-2zm-3.21 14.21l-2.91-2.91c-0.69 0.44-1.51 0.7-2.39 0.7-2.48 0-4.49-2.01-4.49-4.5s2.01-4.5 4.5-4.5 4.5 2.01 4.5 4.5c0 0.88-0.26 1.69-0.7 2.39l2.91 2.9-1.42 1.42z"/>
</svg>
