<?xml version="1.0" encoding="UTF-8" standalone="no"?>
<svg id="svg2" xmlns:rdf="http://www.w3.org/1999/02/22-rdf-syntax-ns#" xmlns="http://www.w3.org/2000/svg" height="270" viewBox="0 0 270 270" width="270" version="1.1" xmlns:cc="http://creativecommons.org/ns#" xmlns:dc="http://purl.org/dc/elements/1.1/">
 <path id="path4141" style="fill:#fff" d="m129.32 211.63c-1.4423-0.0636-2.7574-0.14847-2.927-0.19089-0.23331-0.0537-0.33937-0.23332-0.45603-0.81732-0.2015-0.98561-0.99686-6.7026-0.99686-7.0844 0.0106-0.17958 0.24391 0.16968 0.57268 0.82722 0.31816 0.62641 0.7848 1.3476 1.0499 1.612l0.46663 0.47795 2.4498 0.11594c2.7255 0.11737 12.217 0.0538 13.203-0.0947 0.80599-0.11737 1.3151-0.66884 2.068-2.2272 0.31815-0.65754 0.55147-1.0082 0.55147-0.82722 0 0.37048-0.95447 7.1154-1.0818 7.6033-0.0425 0.18099-0.1909 0.36058-0.31816 0.403-0.41361 0.12727-6.8298 0.36058-9.4178 0.33937-1.3999-0.01-3.7223-0.0735-5.1647-0.13716zm-0.39241-5.9177c-0.73175-0.0636-1.5059-0.1909-1.7392-0.28705-0.44543-0.1909-1.103-1.1029-1.8241-2.5453l-0.46664-0.92197 0.66815 0.6151c0.36058 0.33937 0.88024 0.69996 1.1347 0.81591 1.5802 0.65753 14.37 0.69995 16.639 0.0537 0.28635-0.0749 0.85901-0.44542 1.262-0.81731l0.74238-0.66743-0.60451 1.1666c-0.82722 1.6007-1.4635 2.2908-2.2696 2.4704-0.81661 0.16969-11.803 0.26584-13.543 0.11737zm-3.4892-3.7543c-0.99687-1.3151-1.0605-1.8453-2.8316-26.216-0.65754-9.0572-1.1772-16.48-1.156-16.512 0.16969-0.16969 3.4255 5.557 3.7543 6.607 0.0742 0.26514 0.403 3.6694 0.72116 7.551l0.5833 7.0632-0.27574 0.64691c-0.14849 0.34999-0.32878 1.0923-0.38179 1.633-0.0636 0.54087-0.13788 0.89082-0.15909 0.77418-0.0319-0.11666-0.36058-2.5027-0.75297-5.3026-0.64693-4.6981-1.1136-7.0844-1.2409-6.3526-0.0212 0.15909 0.14847 3.2134 0.39239 6.7874 0.23332 3.574 0.51966 8.7178 0.63633 11.422 0.2227 5.2815 0.46663 8.1237 0.92265 10.691 0.15907 0.87956 0.26514 1.6332 0.23331 1.6644-0.0319 0.0325-0.23331-0.17958-0.44542-0.45531zm0.91206-0.24464c-0.73176-3.3509-1.0287-8.4834-0.71056-12.101 0.0954-1.0712 0.21211-2.1528 0.26513-2.418 0.0955-0.44542 0.10607-0.43481 0.42423 0.5727 0.63632 2.015 1.6014 4.327 2.9483 7.095 1.3045 2.662 1.5906 3.0438 1.5906 2.1104 0.0107-0.18029 0.14846-0.5939 0.31816-0.92265l0.29694-0.5939 0.32877 0.71055c0.18029 0.3818 0.39239 1.1666 0.48784 1.7392 0.18029 1.1666 0.0212 1.6121-0.68935 1.8767-0.43482 0.16969-0.72116-0.10605-0.75298-0.71013 0-0.20151-0.0529-0.51967-0.10591-0.71056-0.0954-0.32876-0.12726-0.30756-0.57269 0.41361-0.57268 0.93356-0.57268 0.93356-1.4423-1.2938-0.32876-0.85901-0.62571-1.4954-0.65753-1.4106-0.0212 0.0742 0.14848 1.1136 0.3924 2.2908l0.44542 2.1532-0.46663 0.48784c-0.46664 0.47655-1.7074 1.4523-1.856 1.4523-0.0424 0-0.14847-0.32805-0.24392-0.74237zm16.407 0.12727c-0.43482-0.33937-0.93331-0.78479-1.1136-0.98561l-0.33937-0.36059 0.49845-2.4183c0.27575-1.3362 0.46665-2.3862 0.42422-2.3543-0.0319 0.0424-0.38179 0.859-0.76359 1.8135-0.39239 0.95447-0.76358 1.8029-0.8272 1.8665-0.0742 0.0742-0.31817-0.16969-0.58331-0.6045-0.49845-0.7954-0.67874-0.76359-0.69995 0.12726 0 0.71055-0.28634 1.0283-0.74237 0.85858-0.2015-0.0735-0.47724-0.30713-0.61511-0.50863-0.2121-0.32877-0.22271-0.49846-0.0742-1.4211 0.0849-0.58328 0.31816-1.3575 0.50906-1.7287l0.33938-0.66813 0.29695 0.63632c0.15908 0.34998 0.28634 0.84843 0.28634 1.0923 0.0107 0.25452 0.0636 0.46663 0.12727 0.46663 0.0636 0 0.72116-1.262 1.4741-2.7998 1.3575-2.7998 2.3332-5.1436 2.9483-7.0844l0.33938-1.0499 0.0848 0.55148c0.49846 2.9483 0.49846 8.463-0.0107 11.793-0.32875 2.1744-0.58328 3.3933-0.69994 3.3933-0.0425 0-0.43483-0.27574-0.85901-0.61511zm1.612 0.1909c0.5833-3.1494 0.90149-6.437 1.0712-11.135 0.0848-2.1635 0.37119-7.2434 0.63632-11.316 0.27573-4.0619 0.48785-7.5616 0.48785-7.7737-0.0107-0.29694-0.0742-0.2121-0.28634 0.3924-0.16969 0.45603-0.58329 2.9483-1.0181 6.1511-0.65753 4.7935-0.75298 5.2919-0.84842 4.592-0.0636-0.42421-0.24392-1.1876-0.403-1.6967l-0.28635-0.92265 0.58329-7.1374 0.5727-7.1374 0.83782-1.6968c0.7954-1.6119 2.9483-5.2389 3.0543-5.1329 0.053 0.053-2.3862 33.65-2.6302 36.164-0.4136 4.3909-0.73177 5.8756-1.4211 6.6491l-0.44542 0.49916 0.0954-0.49916zm-9.5658-2.0786c-0.31816-0.37078-0.53027-0.82681-0.55147-1.198-0.0107-0.2121-0.053-0.15908-0.10605 0.15908-0.0636 0.34998-0.23332 0.59389-0.57269 0.8268l-0.49845 0.32946-0.24393-0.32946c-0.45603-0.59348-0.30756-3.1281 0.21211-3.8494 0.19089-0.25454 0.21211-0.25454 0.45602 0.11665 0.13788 0.21211 0.36058 0.84843 0.48785 1.3999l0.23332 1.0075 0.0849-0.84843c0.0742-0.85901 0.55147-2.0362 0.82721-2.0362 0.23332 0 0.68935 1.1878 0.80601 2.0786l0.10605 0.8166 0.10606-0.67874c0.10605-0.74237 0.63632-2.0786 0.81661-2.0786 0.56208 0 0.94389 3.0756 0.49845 3.9346-0.21211 0.40329-0.26513 0.4344-0.55148 0.29724-0.57269-0.29724-0.806-0.59419-0.8166-1.0396l-0.0212-0.43482-0.10605 0.47724c-0.11666 0.49845-0.55149 1.1669-0.7954 1.2517-0.0849 0.0212-0.24393-0.0636-0.37119-0.20221zm33.099-23.989-14.646-23.915 1.3575-0.0424c1.6544-0.053 2.9801 0.2227 4.3588 0.88024 1.1347 0.54087 2.3014 1.4635 10.595 8.357 4.6451 3.8709 5.8224 4.9207 5.8859 5.2389 0.0529 0.23331 1.6863 7.8161 3.6376 16.863 1.962 9.0462 3.5421 16.47 3.5103 16.491-0.0212 0.0212-6.639-10.722-14.699-23.873zm-80.292 23.767c0-0.19118 7.2221-33.523 7.2857-33.63 0.04235-0.0636 2.5029-2.1423 5.483-4.6238 10.022-8.357 10.446-8.6645 12.652-9.2265 1.3893-0.36058 3.924-0.39239 3.7967-0.053-0.10605 0.26514-28.92 47.31-29.1 47.491-0.06365 0.0735-0.11666 0.0947-0.11666 0.0424zm44.462-15.52c-0.15908-0.0636-0.85901-0.67874-1.5695-1.3681-1.6863-1.6437-2.0362-2.3224-2.0362-4.0086 0-0.66813 0.0424-1.262 0.0849-1.3045 0.053-0.053 0.33937 0.41361 0.63633 1.0394 1.0075 2.0786 2.683 4.2314 3.2981 4.2314 0.14847 0 0.56208-0.24392 0.92264-0.54072 1.4423-1.2196 1.9514-1.209 3.4574 0.074 0.30755 0.25452 0.69995 0.46663 0.86966 0.46663 0.62572 0 2.3544-2.2376 3.3725-4.3798 0.55148-1.1454 0.64693-1.0712 0.64693 0.50906 0 1.5484-0.40301 2.3332-2.0362 3.9132-0.69995 0.68935-1.4105 1.3044-1.5696 1.3681-0.34997 0.13787-0.88024-0.0742-1.9089-0.7742-0.93332-0.63631-1.5272-0.62571-2.3862 0.053-0.73175 0.58331-1.4211 0.85901-1.7816 0.72118zm-0.2015-3.0754c-0.75298-0.92265-2.2164-3.0543-2.5345-3.68-0.46663-0.91206-0.69996-2.0044-0.93331-4.4118-0.29694-3.0967-0.67875-8.5376-0.61511-8.8871 0.0425-0.26514 0.12727-0.22272 0.96505 0.38179 3.9132 2.8846 5.1965 3.8604 5.4828 4.1572 0.30754 0.33937 0.32875 0.50906 0.53026 4.2952 0.10605 2.1635 0.2015 4.3482 0.2015 4.8572 0.0107 0.57269 0.053 0.83782 0.12727 0.71056 0.0636-0.11666 0.2015-1.962 0.28634-4.1043 0.24392-5.6951 0.19089-5.4087 1.0605-6.1511 1.5059-1.3045 5.9496-4.4331 6.0026-4.2316 0.0636 0.29694-0.51967 8.1555-0.76359 10.17-0.10605 0.93322-0.30755 2.015-0.43482 2.4074-0.24392 0.69995-2.3014 3.8815-2.9907 4.6239-0.45604 0.48783-0.63633 0.48783-2.0256 0.0212l-1.1136-0.38179-1.1136 0.38179c-0.61512 0.2015-1.2514 0.37119-1.4106 0.37119-0.16969 0-0.47723-0.22271-0.72116-0.53028zm-71.336-16.105c4.7406-7.063 10.743-16.025 13.341-19.917l4.7406-7.0736 2.8952-1.0287c4.7406-1.6756 15.335-5.2072 17.467-5.8117 3.68-1.0499 5.6314-1.3362 8.9827-1.3362 1.7393 0 2.7786 0.0742 3.5316 0.23331 1.93 0.42421 3.8072 1.5696 4.7299 2.9165 0.34997 0.49845 0.38179 0.61511 0.2121 0.77419-0.11665 0.10605-14.392 9.8841-31.742 21.72-17.339 11.846-31.805 21.72-32.145 21.953-0.54087 0.37119 0.38179-1.0711 7.9857-12.43zm125.46-9.1842c-17.605-12.026-32.102-21.942-32.208-22.048-0.45604-0.44542 1.1984-2.1528 2.8741-2.9801 1.5378-0.75297 2.715-0.95446 5.6633-0.95446 3.977 0 6.1405 0.4242 12.472 2.4392 2.8422 0.9015 11.326 3.7967 15.229 5.1966l1.5371 0.55148 1.5809 2.3332c1.6007 2.3544 24.678 36.811 24.88 37.14 0.0523 0.0955 0.0735 0.1803 0.0425 0.1803-0.0325 0-14.466-9.8418-32.071-21.858zm-63.313-0.81661c-0.61512-4.1573-0.50906-9.4067 0.27574-13.384l0.16969-0.84842 0.79539 0.57268c0.43482 0.30756 1.0287 0.76359 1.3257 1.0181l0.53026 0.45604-0.42421 2.0255c-0.56208 2.6513-0.53027 2.8741 0.11666 0.80601 0.77419-2.5027 0.66813-2.3543 1.156-1.6225 0.83781 1.2618 0.94389 0.78465-1.4848 6.6282-1.209 2.9165-2.2272 5.3239-2.2483 5.3451-0.0319 0.0319-0.12727-0.42421-0.21211-0.99687zm24.562 0.89082c-0.053-0.11666-1.0605-2.5347-2.2377-5.3663l-2.1528-5.1648 0.48786-0.90149c0.26513-0.4877 0.54087-0.89066 0.6151-0.89066 0.0636 0 0.38179 0.83768 0.68935 1.8558 0.31816 1.0181 0.5939 1.7923 0.6151 1.7287 0.0319-0.11666-0.53026-3.1178-0.77418-4.083-0.053-0.24391 0.13787-0.46663 1.1029-1.2302 0.64693-0.50906 1.2514-0.93332 1.3469-0.93332 0.19089 0 0.23331 0.20151 0.53027 2.0786 0.43481 2.7255 0.57268 5.801 0.38178 8.4944-0.20149 2.7786-0.46662 4.7406-0.6045 4.4118zm-18.973-2.471c-0.16967-0.54088-0.37119-2.8422-0.37119-4.1679 0.0107-1.4317 0.18029-3.0649 0.42422-3.977l0.14847-0.56208 0.81662 0.43481c0.68934 0.37118 0.88025 0.56209 1.1878 1.1878l0.36045 0.74237-1.1876 3.171c-0.64693 1.7499-1.209 3.2346-1.2302 3.3089-0.0319 0.0848-0.0955 0.0213-0.14849-0.13786zm12.313-3.0649-1.2302-3.2982 0.34998-0.72115c0.29694-0.60451 0.48785-0.79541 1.1984-1.1666l0.83782-0.45603 0.14847 0.54087c0.36058 1.262 0.48784 3.7967 0.31816 5.9178-0.0954 1.1347-0.22272 2.1635-0.28634 2.2696-0.0742 0.13786-0.51966-0.86967-1.3362-3.0862zm-7.9858 1.4105c-0.55147-1.3151-0.83782-2.4498-0.95447-3.8073-0.11666-1.1984-0.13786-1.1666 0.96513-1.3257 0.5833-0.0849 0.73177-0.053 1.3681 0.34998 0.3924 0.25452 0.71055 0.55147 0.71055 0.65753 0 0.26514-1.4317 4.8996-1.559 5.0482-0.053 0.0636-0.29696-0.36057-0.53027-0.92264zm3.6483-1.5908c-0.41361-1.3575-0.76359-2.5135-0.76359-2.5771s0.30755-0.32877 0.68934-0.5833c0.63632-0.42421 0.77419-0.46664 1.3787-0.3924 1.1347 0.15908 1.1136 0.12727 1.0181 1.2727-0.053 0.55149-0.18029 1.3893-0.28634 1.8771-0.2015 0.90149-1.0181 2.8741-1.1878 2.8741-0.053 0-0.43482-1.1136-0.84844-2.4711zm-7.36-9.4068c-4.5179-0.13787-5.7056-0.23332-6.2889-0.49844-0.36059-0.15908 1.5802-0.19091 12.514-0.19091 11.475 0 12.885 0.0319 12.461 0.21212-0.9333 0.403-11.782 0.67874-18.687 0.47723zm-8.5266-5.9814c-0.10606-4.5815-0.19089-5.1435-1.0287-6.7556-0.65753-1.2409-2.0468-2.5771-3.521-3.3724-2.0256-1.1029-29.027-16.353-29.165-16.47-0.02124-0.0212 1.6014-0.72116 3.6058-1.5696l3.6375-1.527 2.4604-2.9589c1.3469-1.6226 2.5029-2.9059 2.5665-2.8423 0.06362 0.06362 0.51967 0.6151 1.0287 1.2302l0.92265 1.1136-0.0848 1.2514c-0.0849 1.4211 0.14846 3.4254 0.56207 4.7935 1.2302 4.0406 4.6557 7.5616 8.6434 8.8871 2.4179 0.7954 4.5178 0.88024 7.4978 0.28635l1.3999-0.27574 0.34998 0.31816c0.6045 0.56208 1.7074 2.2377 2.0256 3.0649 0.19089 0.48785 0.32875 1.2833 0.38179 2.0468 0.0636 1.1454 0.0954 1.2302 0.29695 1.0181 0.16969-0.16968 0.22271-0.48784 0.2121-1.3151-0.0212-1.6014-0.50905-2.7892-1.9302-4.6664-0.31817-0.41361-0.54087-0.77419-0.50906-0.7954 0.0319-0.0212 0.43482-0.28634 0.90149-0.5833 0.46662-0.29694 1.2196-0.8166 1.665-1.1772l0.8166-0.63632 0.41362 0.3924c0.22271 0.2121 0.60449 0.77419 0.859 1.2409 0.74238 1.3999 0.72116 2.9377-0.0954 5.536-0.46662 1.4741-1.7393 4.3268-1.9302 4.3268-0.0849 0-0.55148-0.22272-1.0394-0.4983-0.49845-0.27575-0.90148-0.47725-0.90148-0.43483 0 0.0319 0.15907 0.403 0.33935 0.82708 0.19091 0.4242 0.50906 1.3151 0.72117 1.9726l0.3712 1.1984 3.0543 1.8135 3.0438 1.8241-0.37119 0.32877-0.38179 0.31816-0.74238-0.403c-2.821-1.5802-4.3906-2.418-4.5073-2.418-0.0849 0-0.10606 0.14848-0.0636 0.31817 0.053 0.18029 0.0849 0.48784 0.0954 0.68934 0 0.33937 0.3924 0.6045 4.486 2.9483l4.486 2.5771 1.7711 0.13786c1.856 0.14847 5.5254 0.053 6.3632-0.16969 0.27574-0.0742 2.4392-1.2409 4.8043-2.6089l4.3164-2.4816 0.0742-0.69996c0.0425-0.39239 0.0319-0.71056-0.0107-0.71056-0.053 0-1.262 0.63633-2.6831 1.4211l-2.5984 1.4106-0.33935-0.33938-0.34999-0.33937 3.0225-1.7923c1.665-0.9863 3.0438-1.8135 3.0649-1.8347 0.0212-0.0212 0.16968-0.49845 0.31816-1.0605 0.15907-0.56209 0.47724-1.4423 0.71056-1.9514 0.23332-0.50892 0.4136-0.95431 0.4136-0.98613 0-0.0319-0.403 0.15909-0.9015 0.44543-0.49845 0.27559-0.96504 0.49831-1.0393 0.49831-0.18029 0-1.1984-2.2376-1.7817-3.9238-1.1665-3.3725-1.0393-5.2921 0.46665-6.9889l0.54087-0.6045 0.82722 0.64693c0.45603 0.36057 1.209 0.89083 1.6756 1.1878 0.4665 0.29695 0.8695 0.55148 0.90132 0.58329 0.0319 0.0212-0.32877 0.56209-0.80586 1.209-1.1454 1.5802-1.7181 3.0331-1.7181 4.327 0 0.51966 0.26513 1.4423 0.41361 1.4423 0.0636 0 0.14847-0.55148 0.18029-1.2302 0.0954-1.8241 0.94389-3.6694 2.3012-4.9739l0.45603-0.44543 1.4741 0.30756c1.8347 0.39239 4.6452 0.4242 6.0981 0.0742 2.5135-0.60449 4.5391-1.7392 6.4269-3.5952 1.2938-1.262 2.121-2.4287 2.8846-4.0619 0.85892-1.8135 1.1558-3.2982 1.1876-5.7373l0.0107-2.0575 0.97572-1.156c0.78478-0.93332 1.0075-1.1347 1.1454-0.98629 0.0955 0.09545 1.209 1.4211 2.4605 2.9377l2.2908 2.7574 3.5316 1.4953c1.9408 0.82721 3.5422 1.5484 3.5634 1.612 0.0107 0.0636-1.8241 1.1666-4.083 2.4392-6.8192 3.8815-21.338 12.079-23.883 13.49-2.7362 1.527-3.68 2.3436-4.4966 3.892-0.93331 1.7816-0.97572 2.0786-1.0604 6.7344l-0.0742 4.1997h-14.667-14.667l-0.0849-4.1361zm6.0981-6.8405c-1.8878-1.1347-3.4679-2.0892-3.4998-2.1104-0.0319-0.0319 0.25453-0.71056 0.62571-1.5058 0.3712-0.79539 0.93332-2.2165 1.2514-3.1498 0.55148-1.6014 0.58329-1.7816 0.58329-3.3195 0-1.4741-0.0424-1.7074-0.39239-2.4711-0.2121-0.45603-0.61511-1.1136-0.89082-1.4423l-0.49846-0.61511 0.67875-0.77419c0.37118-0.42421 0.7954-0.7742 0.94389-0.7742 0.13787 0 0.5833 0.32877 0.99687 0.74238 1.0287 1.0287 1.3893 1.9938 1.3787 3.7012-0.0107 1.2302-0.49845 4.5921-0.95446 6.6072-0.21211 0.9439-0.18029 1.5802 0.0742 1.3045 0.0636-0.0742 0.34998-0.9863 0.62572-2.0362 1.3681-5.1011 1.4529-6.6708 0.71056-12.971-0.69996-6.0661-1.2302-8.463-2.3544-10.722-1.262-2.5347-3.2877-4.6452-5.7905-6.0026-0.66814-0.37119-0.69995-0.41361-0.3818-0.47724 0.49845-0.11667 11.337-1.5059 11.677-1.5059 0.25453 0 0.30756 0.11666 0.3818 0.95447 0.43481 4.6664 0.66813 7.3601 0.806 9.152 0.27574 3.9876 2.3225 23.236 2.524 23.83l0.11666 0.34997 0.15909-0.34997c0.0849-0.1909 0.30755-1.8453 0.50906-3.6801 1.0923-10.085 1.7816-16.936 1.9832-19.513 0.29696-3.8286 0.93331-10.658 1.0075-10.733 0.0636-0.05306 11.231 1.3362 11.931 1.4848 0.31815 0.07421 0.27574 0.11665-0.39241 0.48784-1.7816 0.96505-3.7647 2.7255-4.7935 4.2421-1.6863 2.4816-2.4604 5.186-3.2134 11.093-0.75298 5.992-0.7954 8.0283-0.21211 11.061 0.31817 1.6969 1.2196 5.1436 1.3999 5.3239 0.29695 0.31816 0.26513-0.37119-0.13786-2.3862-0.23332-1.2196-0.51967-3.0225-0.63633-4.0088-0.24392-2.0575-0.15907-2.8634 0.43482-4.0724 0.3818-0.77418 1.4954-1.8878 1.8878-1.8771 0.11666 0.0106 0.53027 0.36059 0.91207 0.7848l0.67874 0.76359-0.45603 0.53026c-1.3045 1.4741-1.7392 3.8179-1.1347 6.045 0.38178 1.4211 1.1772 3.521 1.8135 4.7936 0.403 0.80588 0.44542 1.0074 0.29695 1.1559-0.10606 0.0954-1.6756 1.0818-3.4892 2.1741l-3.2982 1.9832h-5.2072-5.2071l-3.4468-2.068zm-81.565-2.9059c0.04243-0.0423 9.3111-3.6799 20.606-8.1023l20.543-8.0176 13.659 7.7526 13.659 7.7631-3.0118 0.0954c-1.665 0.0529-12.409 0.15908-23.883 0.24392-11.475 0.0954-25.537 0.2015-31.253 0.24391-5.7162 0.0529-10.361 0.0635-10.319 0.0211zm166.56-0.0211c-0.0311-0.0319-11.167-0.12727-24.742-0.23331-13.565-0.0954-25.845-0.21212-27.277-0.26514l-2.6089-0.0849 13.564-7.7101c7.4662-4.2316 13.692-7.6995 13.851-7.6889 0.2015 0 37.776 14.625 40.862 15.897 0.15837 0.0636-2.8324 0.12713-6.6502 0.12713-3.818 0-6.967-0.0107-6.9995-0.0423zm-98.536-8.5816c-2.1209-0.26513-3.8178-0.92264-5.5783-2.1317-3.224-2.2271-4.8785-5.5254-4.8785-9.736v-1.3151l0.63633 0.71056c1.4317 1.5908 1.7498 2.0679 2.0362 2.9799 0.40301 1.3257 1.2196 2.6089 2.2483 3.5528 1.4848 1.3681 4.6026 2.8104 7.2963 3.3725 1.7074 0.36059 2.4498 0.69996 3.1286 1.453 0.61511 0.68935 0.58328 0.72116-0.859 0.94389-1.4848 0.23332-3.0013 0.29695-4.03 0.16969zm42.071 0.0529c-1.7923-0.2227-2.7362-0.38178-2.8847-0.47723-0.26513-0.15908 0.68935-1.1878 1.453-1.5484 0.33938-0.1697 1.2302-0.43483 1.9938-0.5939 1.6544-0.34999 3.4998-1.0287 5.2284-1.9408 2.1953-1.1454 3.7649-2.9907 4.3906-5.1648 0.23331-0.7954 0.43483-1.071 2.3014-3.1814l0.32876-0.37118-0.0742 1.8347c-0.0848 2.28-0.31816 3.2875-1.209 5.1011-1.4423 2.9695-4.4648 5.2921-7.8692 6.045-1.0287 0.22271-2.9589 0.38178-3.6588 0.29694zm-20.108-0.23332c-0.0742-0.0954-0.65753-5.7799-1.2938-12.62-0.64693-6.8511-1.1984-12.62-1.2409-12.833l-0.0742-0.3924h2.8316 2.8422l-0.0636 0.3924c-0.0425 0.2121-0.58329 5.8859-1.209 12.62-0.62572 6.7237-1.1772 12.387-1.2409 12.567-0.11667 0.403-0.34998 0.51965-0.55149 0.26513zm-16.205-1.4954c-0.58329-0.5939-0.63633-0.73176-0.28635-0.73176 0.12726 0 0.92265-0.22271 1.7605-0.49845 1.2514-0.403 1.5908-0.46663 1.9089-0.34998 0.32877 0.12726 0.36059 0.18029 0.18029 0.34998-0.4136 0.403-2.5877 1.7711-2.8104 1.7711-0.12727 0-0.46665-0.24392-0.75299-0.54087zm30.618-0.30755c-0.71055-0.46663-1.3257-0.91207-1.3787-0.99687-0.0424-0.0742 0.0849-0.2015 0.28635-0.27573 0.28633-0.11666 0.67874-0.0425 1.8982 0.34997 0.83782 0.27574 1.6226 0.49845 1.7605 0.49845 0.12726 0 0.23332 0.053 0.23332 0.10605 0 0.20151-1.0712 1.1666-1.2938 1.1666-0.11665 0-0.79539-0.38178-1.5058-0.84842zm-22.303-2.068c-0.63631-0.66814-2.0999-1.4848-14.635-8.1872-7.6569-4.1043-13.978-7.498-14.031-7.551-0.09545-0.08479 3.2664-4.4967 3.6058-4.7299 0.11666-0.07421 2.2696 1.1029 6.3314 3.4467 3.3725 1.962 6.1934 3.6165 6.257 3.6694 0.0636 0.05303-0.24393 1.0075-0.67875 2.121-0.43483 1.1136-0.76359 2.0468-0.74237 2.068 0.0319 0.0319 0.46663-0.83782 0.96504-1.9196 0.49845-1.0923 0.94389-1.9832 0.9863-1.9832 0.053 0 2.7255 1.4529 5.939 3.224l5.8648 3.224 0.23332 1.4104c0.24392 1.4317 0.73177 5.8753 0.65753 5.9177-0.0319 0.0107-0.36058-0.30755-0.75298-0.71055zm15.483 0.46663c0.0107-1.2196 0.79542-6.8829 0.97571-7.0736 0.14848-0.14847 11.623-6.4586 11.729-6.448 0.053 0 0.49845 0.89083 0.99687 1.9726 0.49845 1.0923 0.93331 1.962 0.95446 1.9302 0.0212-0.0212-0.30754-0.95447-0.73176-2.068-0.43482-1.1136-0.73176-2.0786-0.66813-2.1317 0.29695-0.28634 12.387-7.2116 12.493-7.1798 0.23331 0.08489 3.7966 4.7088 3.6905 4.7936-0.053 0.05294-6.3631 3.4468-14.031 7.5404-12.557 6.7237-13.999 7.5296-14.667 8.2084-0.62571 0.63632-0.74237 0.71056-0.74237 0.45603zm-30.893-4.2103c-1.4106-0.69995-2.3332-2.1317-2.3332-3.6163 0-0.84843-0.0212-0.88025-0.57269-1.3257-0.30755-0.24392-0.56207-0.53027-0.56207-0.64692 0-0.10605 0.0212-0.20151 0.0423-0.20151 0.10605 0 9.9264 5.398 10.053 5.5146 0.26513 0.27575-0.58329 0.28635-1.5166 0.0212l-0.97571-0.26514-0.77419 0.403c-0.65753 0.34998-0.94389 0.41361-1.7923 0.40301-0.71057 0-1.1666-0.0849-1.5695-0.28635zm43.704-0.10605-0.7954-0.40301-1.0075 0.27575c-0.68935 0.18029-1.0923 0.23331-1.2938 0.14846-0.26513-0.12726-0.25453-0.14846 0.19089-0.42421 0.67874-0.4136 9.6082-5.2813 9.6826-5.2813 0.24392 0-0.0319 0.45602-0.49845 0.83782-0.55149 0.44542-0.56209 0.47723-0.5727 1.3257-0.0106 2.9057-3.118 4.8253-5.7057 3.5208zm-78.33-1.0393c-1.8771-0.86967-2.0468-0.92265-19.397-5.451-0.77417-0.2015-1.4529-0.40301-1.5166-0.45603-0.07422-0.0636 12.281-3.0649 14.402-3.4998 0.24392-0.05303 0.57269 0.32877 1.9408 2.2483 2.1528 3.0331 3.8178 5.1224 5.3768 6.7236 0.69995 0.72117 1.209 1.3045 1.1347 1.2938-0.06364 0-0.94389-0.3924-1.9408-0.859zm115.45-0.33937c1.4635-1.5164 3.3414-3.8709 5.4936-6.8934 1.3476-1.8878 1.6446-2.2272 1.899-2.1635 7.6881 1.7817 14.475 3.4361 14.402 3.4997-0.0537 0.0425-3.7019 1.0181-8.0926 2.1741-4.3906 1.1454-8.6755 2.2694-9.5235 2.4921-0.84844 0.23332-2.312 0.76359-3.2552 1.1984-0.94457 0.43482-1.8142 0.82721-1.9302 0.86968-0.11737 0.0424 0.33937-0.48785 1.0068-1.1772zm-108.54-2.35c-1.3362-1.3469-2.9165-3.0225-3.5103-3.7436-6.459-7.836-10.765-16.247-11.984-23.426-0.14848-0.93331-0.26514-1.7074-0.23332-1.7287 0.02124-0.03182 0.58329 0.39239 1.2409 0.93331l1.1984 0.97571 0.19089 0.96513c0.89083 4.5497 3.9557 10.881 8.0493 16.608 2.2696 3.1816 6.9147 8.5477 8.7492 10.128 0.4136 0.33938 0.74237 0.6786 0.74237 0.73163 0 0.0529-0.44542 0.30755-1.0075 0.55149l-0.99687 0.44542-2.4392-2.4391zm99.052 1.9831c-0.50906-0.22271-0.94389-0.43482-0.97572-0.46663-0.0319-0.0319 0.78479-0.90132 1.8241-1.93 6.2992-6.342 11.581-14.052 14.201-20.755 0.56138-1.4317 1.431-4.3376 1.5795-5.2602 0.075-0.48785 0.23333-0.67874 1.2938-1.5484 0.65753-0.54088 1.2203-0.96513 1.2415-0.94389 0.0849 0.08484-0.3818 2.7255-0.71127 4.0195-2.015 7.9539-7.4874 17.212-14.359 24.276-0.8904 0.92265-1.9722 1.9831-2.407 2.3543l-0.77419 0.66813-0.91207-0.41361zm-61.733-5.154c-2.9483-1.6756-5.4512-3.118-5.5466-3.2134-0.14848-0.13787 0.0529-0.74237 1.0499-3.0967 0.76359-1.8135 1.3151-2.927 1.4317-2.927 0.42422 0 2.7468 1.3257 3.6589 2.0999 2.1528 1.8135 3.521 4.083 4.3588 7.2859 0.38179 1.4317 0.63632 2.9165 0.50904 2.9059-0.0423 0-2.5029-1.3787-5.4617-3.0543zm22.335 2.7468c0.0425-0.18029 0.16969-0.84842 0.29695-1.4848 0.75298-3.8709 2.5984-6.9995 5.2284-8.877 0.90132-0.63632 2.7679-1.6226 3.0754-1.6226 0.2015 0 2.6937 5.7587 2.5771 5.939-0.0424 0.06362-1.3893 0.859-3.0014 1.7817-1.6121 0.91207-4.0935 2.312-5.5041 3.118-1.4105 0.80601-2.6089 1.4635-2.6513 1.4635-0.053 0-0.053-0.14847-0.0212-0.31815zm-53.164-0.76358c-2.8528-2.0468-6.4056-5.4088-8.5477-8.1131-2.8528-3.5952-5.2815-7.8692-6.8405-12.058-0.38179-1.0181-0.33937-1.1666 0.2015-0.58329 0.89083 0.95447 7.5616 6.0661 14.084 10.775 3.2982 2.3862 3.0862 2.1423 3.4466 4.1149 0.21211 1.1454 0.16968 3.5103-0.07411 4.4755-0.24391 0.93331-0.77418 2.068-0.99686 2.1423-0.08489 0.0319-0.65753-0.30755-1.2727-0.75297zm87.83 0.19089c-0.89083-1.5166-1.0605-4.8679-0.37119-7.4238 0.13787-0.54088 0.33937-0.71055 2.6619-2.3756 5.7057-4.1043 12.844-9.5447 14.413-10.987 0.32806-0.30756 0.60379-0.47724 0.60379-0.3818 0 0.3924-1.3575 3.5634-2.3855 5.5783-1.1991 2.365-3.0331 5.2178-4.7512 7.3601-1.4325 1.8029-4.8363 5.2072-6.5756 6.5859-1.5696 1.2409-2.9695 2.2483-3.1286 2.2483-0.0636 0-0.27573-0.26513-0.46664-0.60449zm-69.364-9.2713c-3.3089-1.9196-6.0981-3.5422-6.1936-3.5952-0.11665-0.08484 0.79541-1.3257 2.9589-4.03 1.7181-2.1633 3.2134-4.0193 3.3195-4.1253 0.16968-0.18029 0.26513-0.14848 0.72116 0.28635 0.29695 0.26513 0.75297 0.67874 1.0181 0.91207l0.48785 0.41361-0.34998-0.48784c-0.19089-0.27574-0.54087-0.74238-0.75298-1.0287-0.22271-0.29694-0.3818-0.56208-0.34997-0.58329 0.0742-0.06364 14.848-0.403 14.89-0.33937 0.46663 0.65753 2.4392 2.8846 2.5877 2.9165 0.11665 0.03182-0.11666-0.57269-0.59391-1.559-0.43481-0.88025-2.0256-4.083-3.521-7.1162-1.5059-3.0331-2.715-5.536-2.6937-5.5571 0.0212-0.03182 3.3619 0.21211 7.4132 0.54088l7.36 0.6045 7.2434-0.5939c3.9876-0.31816 7.3283-0.58329 7.4238-0.58329 0.0954 0-1.3999 3.171-3.3619 7.0737-1.9408 3.8922-3.5316 7.1055-3.5316 7.1374 0 0.32877 0.54087-0.16968 1.559-1.4211l1.1984-1.4848 3.1074 0.07423c1.7179 0.0424 5.0692 0.11666 7.466 0.16969 2.3862 0.05297 4.3482 0.12726 4.3482 0.16968 0 0.03182-0.15908 0.27574-0.36058 0.54087-1.1772 1.5696-1.1772 1.5696-0.0954 0.62572 0.57269-0.50906 1.0818-0.84843 1.1454-0.77419 0.83781 0.93331 6.3844 8.0281 6.3526 8.1236-0.0742 0.21211-12.323 7.2117-12.419 7.095-0.11666-0.13786-2.5453-5.7799-2.5453-5.9072 0-0.05294 0.61511-0.86966 1.3681-1.8135 0.75298-0.94389 1.4317-1.8135 1.5166-1.9302 0.0849-0.11666-0.56207 0.45603-1.4423 1.2727-0.88025 0.81662-1.7074 1.559-1.8347 1.6438-0.1909 0.12727-1.7181-0.02124-6.7448-0.65752-6.4904-0.82722-6.5223-0.82722-10.329-0.83782h-3.818l-6.6388 0.82721-6.639 0.83783-1.6332-1.5272c-0.89083-0.84843-1.6544-1.5166-1.6756-1.4848-0.0319 0.03182 0.5939 0.84843 1.3893 1.8347l1.4423 1.7817-0.21211 0.53026c-0.67874 1.6863-2.4074 5.536-2.4816 5.5254-0.053-0.01068-2.7998-1.5802-6.0979-3.4998zm-14.922-2.102c-13.893-9.418-23.576-16.258-25.357-17.934-2.0786-1.9408-3.0543-3.9876-3.0543-6.3632 0-1.9408 0.67874-3.7755 2.1528-5.8647 0.64693-0.92265 3.7967-4.1996 3.9133-4.083 0.0424 0.0424-0.10605 0.54087-0.31815 1.1242-0.34998 0.95447-0.3818 1.2302-0.3818 3.0225 0 1.9302 0.01058 2.0044 0.43482 2.9058 1.1242 2.3332 2.0575 2.9907 7.307 5.1754 7.5934 3.171 21.571 8.7703 26.439 10.584 2.0999 0.78479 2.8952 1.1454 2.821 1.2727-0.053 0.09545-1.5908 1.9302-3.415 4.083l-3.3195 3.9026-1.209-0.64692c-4.445-2.396-14.403-8.569-25.39-15.727-4.178-2.725-5.143-3.542-5.865-5.016-0.593-1.22-0.89-2.747-0.731-3.797 0.06364-0.44541 0.07422-0.8272 0.02124-0.8272-0.2121 0-0.45603 1.7393-0.39239 2.8634 0.05306 0.96505 0.13786 1.3362 0.53026 2.121 0.72117 1.4635 1.7817 2.4286 5.0906 4.6027 7.0736 4.6664 23.003 14.975 25.919 16.777 0.96505 0.5939 1.0817 0.71056 0.92264 0.91207-0.58329 0.75298-2.6937 3.1286-2.7679 3.1286-0.05303-0.01068-1.559-0.99686-3.3513-2.2165zm77.705 0.7848c-0.66814-0.77419-1.2833-1.5272-1.3893-1.665-0.15909-0.23332 0-0.36059 1.6968-1.4317 3.521-2.2059 15.304-9.8519 25.633-16.608 3.1279-2.0468 4.4331-3.4043 4.9421-5.1541 0.25452-0.89083 0.28564-2.2377 0.0735-3.2558-0.2121-0.97571-0.3917-1.0181-0.26442-0.05306 0.29694 2.1423-0.86967 4.8042-2.7263 6.2359-0.81591 0.62571-9.6505 6.3632-14.889 9.6716-5.8435 3.6907-11.719 7.2221-14.413 8.6747l-1.156 0.62571-3.436-4.0299c-1.8878-2.2272-3.4043-4.0619-3.3831-4.0937 0.0319-0.03182 1.6756-0.66814 3.6589-1.4211 3.5314-1.3257 16.639-6.5647 23.746-9.4914 6.4904-2.6619 7.5298-3.2558 8.6324-4.9526 0.93323-1.4105 1.1878-2.4392 1.0917-4.38-0.0523-1.1454-0.16969-1.7923-0.44542-2.5771-0.2008-0.57269-0.33938-1.0818-0.30685-1.1136 0.11594-0.10606 3.0119 2.874 3.743 3.8603 2.7574 3.68 3.0868 7.2964 0.95447 10.499-1.1977 1.8029-2.715 3.0225-10.976 8.8236-7.1589 5.0269-19.27 13.278-19.472 13.257-0.0636 0-0.65753-0.63632-1.3151-1.4211zm-53.71-12.536c-0.79539-1.559-4.5603-9.8206-4.4966-9.8841 0.0319-0.03182 1.1772 0.47724 2.5453 1.1347l2.4711 1.1984 0.54087 0.86967c0.29695 0.48785 1.4211 2.2165 2.4922 3.8497 1.0712 1.6226 1.9408 3.0119 1.9408 3.0756 0 0.09545-2.9801 0.28635-4.5391 0.28635-0.64693 0-0.69995-0.02124-0.95447-0.53027zm30.278 0.43483c-0.72117-0.03182-1.3151-0.10606-1.3151-0.1803 0-0.06364 0.7848-1.3257 1.7499-2.7892 0.95447-1.4635 2.0573-3.1816 2.4391-3.8179l0.68934-1.156 2.524-1.2195c1.3893-0.67874 2.5558-1.1984 2.5877-1.156 0.0425 0.03182-1.0075 2.3756-2.3226 5.2072l-2.3862 5.1436-1.3256 0.01058c-0.73176 0-1.9194-0.02124-2.6406-0.0424zm-39.93-0.467c-0.5-0.679-10.598-17.011-10.556-17.053 0.06362-0.06364 8.9404 5.8859 12.143 8.1237l2.4921 1.7498 2.2165 3.6694c1.2196 2.0256 2.2059 3.7013 2.1741 3.7225-0.0319 0.03182-1.8878 0.07423-4.1361 0.09546l-4.0829 0.0424-0.25452-0.34998zm49.113 0.31816c-2.1104-0.02124-3.8497-0.07423-3.8497-0.12727 0-0.0424 0.98629-1.7181 2.1953-3.7225l2.2059-3.6483 2.2165-1.5483c4.8042-3.3512 9.2155-6.3313 11.888-8.0176 0.33938-0.2121 0.56209-0.29694 0.50906-0.2015-0.54088 0.93331-10.488 16.936-10.647 17.128-0.11666 0.13787-0.30755 0.23332-0.43482 0.21211-0.12726-0.02124-1.962-0.05306-4.083-0.07423z"/>
</svg>
