<?xml version="1.0" encoding="UTF-8" standalone="no"?>
<!-- Created with Inkscape (http://www.inkscape.org/) -->
<svg id="svg4136" xmlns:rdf="http://www.w3.org/1999/02/22-rdf-syntax-ns#" xmlns="http://www.w3.org/2000/svg" height="500" viewBox="0 0 1800 500" width="1800" version="1.1" xmlns:cc="http://creativecommons.org/ns#" xmlns:dc="http://purl.org/dc/elements/1.1/">
 <metadata id="metadata4142">
  <rdf:RDF>
   <cc:Work rdf:about="">
    <dc:format>image/svg+xml</dc:format>
    <dc:type rdf:resource="http://purl.org/dc/dcmitype/StillImage"/>
    <dc:title/>
   </cc:Work>
  </rdf:RDF>
 </metadata>
 <defs id="defs4140">
  <filter id="filter4205" style="color-interpolation-filters:sRGB" height="1.1799" width="1.045" y="-.089932" x="-.022504">
   <feGaussianBlur id="feGaussianBlur4207" stdDeviation="15.964062"/>
  </filter>
 </defs>
 <g id="layer2">
  <path id="path4146-0" filter="url(#filter4205)" d="m471.93 471.19-28.75-3.5708v-154.3-154.3h32.962 32.962l0.28752 8.8982 0.28753 8.8982 8-5.9058c15.321-11.31 25.439-14.814 45.081-15.61 23.583-0.95594 40.296 4.4293 56.694 18.268 21.607 18.235 34.442 60.321 30.77 100.9-4.174 46.128-18.007 72.036-45.679 85.559-13.096 6.3997-23.134 8.4692-40.865 8.4245-13.971-0.0352-15.514-0.23139-22.5-2.8612-9.5286-3.5871-19.21-9.824-26.381-16.996l-5.6187-5.6187v66.022 66.022l-4.25-0.12946c-2.3375-0.0712-17.188-1.7363-33-3.7002zm88.548-155.18c4.5843-1.4159 7.9685-3.3228 11.446-6.4495 10.085-9.0672 12.878-21.85 12.002-54.921-0.65209-24.606-2.1434-30.053-10.572-38.61-7.2218-7.3322-14.079-10.091-25.145-10.115-4.2128-0.009-9.6936 0.49531-12.18 1.1213-9.6823 2.438-19.676 13.173-24.053 25.837-2.1252 6.1491-2.2972 8.2937-2.2972 28.647 0 25.587 1.4051 34.21 6.8818 42.235 3.7591 5.508 10.847 10.655 17.488 12.7 6.9183 2.1302 18.734 1.9311 26.428-0.44545zm204.2 52.823c-14.839-0.81444-36.752-4.6096-47.383-8.2065-20.401-6.9023-36.093-21.909-44.275-42.341-6.2252-15.547-7.2773-23.515-7.2976-55.265-0.0192-30.096 0.93924-39.374 5.4099-52.368 7.4575-21.676 24.286-38.777 47.045-47.809 19.482-7.7316 50.38-9.6939 75.069-4.7677 33.488 6.6819 54.712 27.625 62.045 61.223 2.0013 9.1698 3.8012 35.05 3.8579 55.472l0.0285 10.25h-64.594-64.594l0.66198 5.25c1.2245 9.7111 3.4876 14.842 8.9595 20.314 9.4739 9.4739 25.899 12.9 50.909 10.621 15.423-1.4059 38.649-6.4075 50.024-10.772 0.96799-0.37145 1.7771 0.52622 2.4958 2.7689 1.7816 5.5598 10.137 37.939 10.137 39.284 0 1.7641-18.635 8.9929-30.736 11.923-17.647 4.2731-35.546 5.6442-57.764 4.4247zm35.2-136.56c-1.0596-15.616-5.2027-22.924-15.988-28.2-13.927-6.8126-27.108-6.14-39.845 2.0334-8.698 5.5815-13.029 13.922-14.367 27.666l-0.70559 7.25h35.75 35.75l-0.59371-8.75zm-671.2 135.21c-37.345-6.92-60.928-24.67-72.467-54.54-5.91-15.3-7.468-25.93-7.468-50.92 0-19.592 0.29005-23.83 2.2444-32.794 7.8784-36.136 29.305-59.883 62.494-69.262 15.938-4.504 43.018-6.2258 61.491-3.9094 11.22 1.4068 26.331 5.4475 33.923 9.0713 5.0809 2.4249 6.28 3.4469 6.28 5.3526 0 1.2955-2.7534 10.835-6.1186 21.199s-6.3494 19.656-6.6314 20.65c-0.33497 1.1801-1.074 1.5891-2.1314 1.1796-0.89022-0.34483-7.0186-1.9939-13.619-3.6646-14.206-3.5961-32.299-4.8407-41.388-2.847-15.802 3.4661-25.337 12.701-29.693 28.759-2.5314 9.3318-3.075 34.195-0.9587 43.848 4.2123 19.213 13.885 31.12 29.623 36.464 12.202 4.1437 32.037 2.5393 50.099-4.0525l7.804-2.8481 1.5804 5.6776c0.86922 3.1227 2.4446 8.3776 3.5009 11.678 1.0563 3.3 3.4508 11.317 5.3211 17.815l3.4006 11.815-2.5423 0.96659c-7.6648 2.9142-24.437 8.1998-30.16 9.5049-9.8026 2.2353-44.253 2.7831-54.587 0.86802zm155.47 0.0396c-20.396-4.0677-37.548-15.527-48.439-32.362-11.463-17.72-16.369-37.257-17.244-68.669-0.77568-27.84 2.4989-47.637 10.822-65.426 17.544-37.497 58.003-55.141 97.614-42.57 9.5083 3.0176 16.074 7.3533 26.954 17.798l8.3287 7.996v-13.138-13.138h30.5 30.5v103.5 103.5h-30.5-30.5v-12.5c0-6.875-0.3375-12.481-0.75-12.457-0.4125 0.0234-2.4955 2.3053-4.629 5.0709-5.3628 6.9518-14.934 14.69-22.317 18.043-11.861 5.3869-35.083 7.3945-50.339 4.352zm51.716-51.663c7.7742-2.9087 15.258-10.397 18.17-18.18 4.5108-12.056 4.932-54.949 0.6799-69.253-4.3962-14.789-18.066-23.111-36.514-22.229-10.688 0.51098-17.99 3.7047-23.949 10.474-7.6679 8.7112-10.509 22.053-10.507 49.341 0.001 17.98 1.1448 25.477 5.1104 33.5 6.1431 12.428 16.614 18.365 32.541 18.452 6.5602 0.0359 10.135-0.48432 14.469-2.106zm651.32 51.732c-14.056-3.1098-22.088-7.0853-36.258-17.947l-3.7425-2.8687v9.1187 9.1187h-33-33v-154.29-154.29l31.25-3.7417c17.188-2.0579 32.038-3.7278 33-3.7108 1.6487 0.0291 1.75 3.8588 1.75 66.17v66.139l4.25-4.453c13.617-14.267 27.605-20.717 46.75-21.556 22.862-1.0015 44.113 5.5791 59.599 18.456 5.4535 4.5344 14.252 15.875 17.671 22.775 8.6036 17.367 14.802 52.133 13.283 74.5-3.7473 55.163-26.327 88.263-65.768 96.409-9.0583 1.871-27.694 1.959-35.785 0.16885zm14.77-52.573c7.6297-3.2846 14.581-11.232 17.326-19.811 1.775-5.5456 2.2298-9.9765 2.6495-25.814 0.8769-33.091-1.9152-45.852-12.02-54.937-6.9296-6.2303-15.655-8.8348-27.674-8.2602-7.427 0.35509-9.8498 0.93491-15.472 3.7028-15.647 7.703-20.292 21.635-19.333 57.979 0.3896 14.754 0.8167 18.603 2.6135 23.555 4.0399 11.134 11.414 20.11 19.782 24.081 7.839 3.7198 22.875 3.488 32.127-0.49545zm187.84 52.925c-15.437-2.1332-26.696-5.791-39.174-12.726-24.825-13.798-40.121-38.34-43.446-69.704-2.6881-25.359 0.9634-59.916 8.157-77.195 10.905-26.195 31.371-42.351 63.854-50.408 8.4004-2.0835 11.815-2.3545 29.5-2.3411 17.244 0.0131 21.292 0.32457 29.38 2.2609 49.292 11.802 74.12 46.711 74.12 104.21 0 24.167-3.8064 41.957-12.652 59.133-11.384 22.104-31.547 37.858-56.848 44.419-8.5509 2.2171-12.608 2.6441-28 2.9462-9.9 0.19433-21.101-0.0752-24.892-0.59903zm34.039-52.1c10.033-3.6979 17.534-12.837 20.851-25.405 2.0989-7.9525 3.1142-39.246 1.62-49.925-1.4707-10.511-6.5616-21.091-12.484-25.944-7.9749-6.5349-12.74-8.0588-25.134-8.0376-9.1345 0.0156-11.803 0.38642-15.733 2.1864-9.9901 4.5748-15.905 11.404-19.31 22.295-2.2087 7.0647-3.2177 41.805-1.5697 54.05 1.9756 14.68 7.6972 23.655 18.448 28.939 10.432 5.1268 22.577 5.7983 33.312 1.8419zm192.35 52.555c-36.697-4.5048-63.009-21.63-76.646-49.885-2.389-4.95-5.2616-12.6-6.3837-17-5.8589-22.974-4.1228-65.234 3.633-88.435 12.162-36.381 47.596-58.094 94.94-58.176 25.987-0.0451 48.717 6.3825 66.069 18.682 7.8426 5.5593 17.85 16.4 22.657 24.543 14.403 24.4 19.131 63.221 11.795 96.835-8.2386 37.748-33.114 63.183-70.064 71.639-6.3693 1.4577-38.529 2.7138-46 1.7966zm30.712-52.51c4.1773-1.5334 7.3282-3.6896 11.325-7.75 9.3279-9.4762 11.881-19.782 11.924-48.126 0.028-18.584-1.1079-26.425-5.0127-34.607-3.444-7.2161-9.0065-12.59-16.829-16.258-5.016-2.352-6.8022-2.6332-16.62-2.6164-12.989 0.0222-17.528 1.6215-25.338 8.9261-9.9997 9.3536-12.805 22.029-11.854 53.555 0.4484 14.857 0.9668 19.78 2.6325 25 3.4489 10.808 10.928 18.531 21.478 22.178 7.4415 2.5725 20.851 2.429 28.293-0.30271zm109.53-105.1 0.2532-154.23 31.852-3.8354c17.519-2.1095 32.027-3.6605 32.241-3.4466 0.2138 0.21383 0.4011 46.456 0.4161 102.76 0.023 85.394 0.2486 102.13 1.3614 100.93 0.7337-0.79524 14.076-21.471 29.649-45.946s28.824-45.069 29.447-45.763c0.8788-0.98116 8.7798-1.2045 35.371-1l34.24 0.26336-32.539 50.855c-17.896 27.971-32.539 51.018-32.539 51.217 0 0.29019 46.113 72.937 61.367 96.677l3.6945 5.75-34.781-0.039-34.781-0.039-29.5-46.452c-16.225-25.549-29.846-46.456-30.269-46.461-0.4231-0.005-0.7517 20.129-0.7304 44.741 0.021 24.612 0.03 45.538 0.019 46.5-0.018 1.6304-2.2415 1.75-32.523 1.75h-32.503l0.2531-154.23z"/>
 </g>
 <g id="layer1">
  <path id="path4146" fill="#fff" d="m471.93 451.19-28.75-3.5708v-154.3-154.3h32.962 32.963l0.2875 8.8982 0.2875 8.8982 8-5.9058c15.32-11.31 25.439-14.814 45.081-15.61 23.583-0.95594 40.296 4.4293 56.694 18.268 21.607 18.235 34.442 60.321 30.77 100.9-4.174 46.128-18.007 72.036-45.679 85.559-13.096 6.3997-23.134 8.4692-40.865 8.4245-13.971-0.0352-15.514-0.23139-22.5-2.8612-9.5286-3.5871-19.21-9.824-26.381-16.996l-5.6187-5.6187v66.022 66.022l-4.25-0.12946c-2.3375-0.0712-17.188-1.7363-33-3.7002zm88.548-155.18c4.5843-1.4159 7.9685-3.3228 11.446-6.4495 10.085-9.0672 12.878-21.85 12.002-54.921-0.6521-24.606-2.1434-30.053-10.572-38.61-7.2219-7.3322-14.079-10.091-25.145-10.115-4.2128-0.009-9.6936 0.49531-12.18 1.1213-9.6824 2.438-19.676 13.173-24.053 25.837-2.1252 6.1491-2.2972 8.2937-2.2972 28.647 0 25.587 1.4051 34.21 6.8818 42.235 3.7591 5.508 10.847 10.655 17.488 12.7 6.9183 2.1302 18.734 1.9311 26.428-0.44545zm204.2 52.823c-14.839-0.81444-36.752-4.6096-47.383-8.2065-20.401-6.9023-36.093-21.909-44.274-42.341-6.2252-15.547-7.2774-23.515-7.2976-55.265-0.019-30.096 0.9392-39.374 5.4099-52.368 7.4575-21.676 24.286-38.777 47.045-47.809 19.482-7.7316 50.38-9.6939 75.069-4.7677 33.488 6.6819 54.712 27.625 62.045 61.223 2.0014 9.1698 3.8013 35.05 3.8579 55.472l0.028 10.25h-64.594-64.594l0.6619 5.25c1.2245 9.7111 3.4876 14.842 8.9595 20.314 9.4739 9.4739 25.899 12.9 50.909 10.621 15.423-1.4059 38.649-6.4075 50.024-10.772 0.968-0.37145 1.7772 0.52622 2.4958 2.7689 1.7817 5.5598 10.137 37.939 10.137 39.284 0 1.7641-18.635 8.9929-30.736 11.923-17.648 4.2731-35.546 5.6442-57.764 4.4247zm35.202-136.56c-1.0596-15.616-5.2026-22.924-15.988-28.2-13.927-6.8126-27.108-6.14-39.845 2.0334-8.6979 5.5815-13.029 13.922-14.367 27.666l-0.7056 7.25h35.75 35.749l-0.59369-8.75zm-671.2 135.21c-37.345-6.92-60.928-24.67-72.467-54.54-5.9094-15.299-7.468-25.927-7.468-50.923 0-19.592 0.29005-23.83 2.2444-32.794 7.8784-36.136 29.305-59.883 62.494-69.262 15.938-4.504 43.018-6.2258 61.491-3.9094 11.22 1.4068 26.331 5.4475 33.923 9.0713 5.0809 2.4249 6.28 3.4469 6.28 5.3526 0 1.2955-2.7534 10.835-6.1186 21.199s-6.3494 19.656-6.6314 20.65c-0.33497 1.1801-1.074 1.5891-2.1314 1.1796-0.89022-0.34483-7.0186-1.9939-13.619-3.6646-14.206-3.5961-32.299-4.8407-41.388-2.847-15.802 3.4661-25.337 12.701-29.693 28.759-2.5314 9.3318-3.075 34.195-0.9587 43.848 4.2123 19.213 13.885 31.12 29.623 36.464 12.202 4.1437 32.037 2.5393 50.099-4.0525l7.804-2.8481 1.5804 5.6776c0.86922 3.1227 2.4446 8.3776 3.5009 11.678 1.0563 3.3 3.4508 11.317 5.3211 17.815l3.4006 11.815-2.5423 0.96659c-7.6648 2.9142-24.437 8.1998-30.16 9.5049-9.8026 2.2353-44.253 2.7831-54.587 0.86802zm155.47 0.0396c-20.396-4.0677-37.548-15.527-48.439-32.362-11.463-17.72-16.369-37.257-17.244-68.669-0.77568-27.84 2.4989-47.637 10.822-65.426 17.544-37.497 58.003-55.141 97.614-42.57 9.5083 3.0176 16.074 7.3533 26.954 17.798l8.3287 7.996v-13.138-13.138h30.5 30.5v103.5 103.5h-30.5-30.5v-12.5c0-6.875-0.3375-12.481-0.75-12.457-0.4125 0.0234-2.4955 2.3053-4.629 5.0709-5.3628 6.9518-14.934 14.69-22.317 18.043-11.861 5.3869-35.083 7.3945-50.339 4.352zm51.716-51.663c7.7742-2.9087 15.258-10.397 18.17-18.18 4.5108-12.056 4.932-54.949 0.6799-69.253-4.3962-14.789-18.066-23.111-36.514-22.229-10.688 0.51098-17.99 3.7047-23.949 10.474-7.6679 8.7112-10.509 22.053-10.507 49.341 0.001 17.98 1.1448 25.477 5.1104 33.5 6.1431 12.428 16.614 18.365 32.541 18.452 6.5602 0.0359 10.135-0.48432 14.469-2.106zm651.32 51.732c-14.056-3.1098-22.088-7.0853-36.258-17.947l-3.7425-2.8687v9.1187 9.1187h-33-33v-154.29-154.29l31.25-3.7417c17.188-2.0579 32.038-3.7278 33-3.7108 1.6487 0.0291 1.75 3.8588 1.75 66.17v66.139l4.25-4.453c13.617-14.267 27.605-20.717 46.75-21.556 22.862-1.0015 44.113 5.5791 59.599 18.456 5.4535 4.5344 14.252 15.875 17.671 22.775 8.6036 17.367 14.802 52.133 13.283 74.5-3.7473 55.163-26.327 88.263-65.768 96.409-9.0583 1.871-27.694 1.959-35.785 0.16885zm14.77-52.573c7.6297-3.2846 14.581-11.232 17.326-19.811 1.775-5.5456 2.2298-9.9765 2.6495-25.814 0.8769-33.091-1.9152-45.852-12.02-54.937-6.9296-6.2303-15.655-8.8348-27.674-8.2602-7.427 0.35509-9.8498 0.93491-15.472 3.7028-15.647 7.703-20.292 21.635-19.333 57.979 0.3896 14.754 0.8167 18.603 2.6135 23.555 4.0399 11.134 11.414 20.11 19.782 24.081 7.839 3.7198 22.875 3.488 32.127-0.49545zm187.84 52.925c-15.437-2.1332-26.696-5.791-39.174-12.726-24.825-13.798-40.121-38.34-43.446-69.704-2.6881-25.359 0.9634-59.916 8.157-77.195 10.905-26.195 31.371-42.351 63.854-50.408 8.4004-2.0835 11.815-2.3545 29.5-2.3411 17.244 0.0131 21.292 0.32457 29.38 2.2609 49.292 11.802 74.12 46.711 74.12 104.21 0 24.167-3.8064 41.957-12.652 59.133-11.384 22.104-31.547 37.858-56.848 44.419-8.5509 2.2171-12.608 2.6441-28 2.9462-9.9 0.19433-21.101-0.0752-24.892-0.59903zm34.039-52.1c10.033-3.6979 17.534-12.837 20.851-25.405 2.0989-7.9525 3.1142-39.246 1.62-49.925-1.4707-10.511-6.5616-21.091-12.484-25.944-7.9749-6.5349-12.74-8.0588-25.134-8.0376-9.1345 0.0156-11.803 0.38642-15.733 2.1864-9.9901 4.5748-15.905 11.404-19.31 22.295-2.2087 7.0647-3.2177 41.805-1.5697 54.05 1.9756 14.68 7.6972 23.655 18.448 28.939 10.432 5.1268 22.577 5.7983 33.312 1.8419zm192.35 52.555c-36.697-4.5048-63.009-21.63-76.646-49.885-2.389-4.95-5.2616-12.6-6.3837-17-5.8589-22.974-4.1228-65.234 3.633-88.435 12.162-36.381 47.596-58.094 94.94-58.176 25.987-0.0451 48.717 6.3825 66.069 18.682 7.8426 5.5593 17.85 16.4 22.657 24.543 14.403 24.4 19.131 63.221 11.795 96.835-8.2386 37.748-33.114 63.183-70.064 71.639-6.3693 1.4577-38.529 2.7138-46 1.7966zm30.712-52.51c4.1773-1.5334 7.3282-3.6896 11.325-7.75 9.3279-9.4762 11.881-19.782 11.924-48.126 0.028-18.584-1.1079-26.425-5.0127-34.607-3.444-7.2161-9.0065-12.59-16.829-16.258-5.016-2.352-6.8022-2.6332-16.62-2.6164-12.989 0.0222-17.528 1.6215-25.338 8.9261-9.9997 9.3536-12.805 22.029-11.854 53.555 0.4484 14.857 0.9668 19.78 2.6325 25 3.4489 10.808 10.928 18.531 21.478 22.178 7.4415 2.5725 20.851 2.429 28.293-0.30271zm109.53-105.1 0.2532-154.23 31.852-3.8354c17.519-2.1095 32.027-3.6605 32.241-3.4466 0.2138 0.21383 0.4011 46.456 0.4161 102.76 0.023 85.394 0.2486 102.13 1.3614 100.93 0.7337-0.79524 14.076-21.471 29.649-45.946s28.824-45.069 29.447-45.763c0.8788-0.98116 8.7798-1.2045 35.371-1l34.24 0.26336-32.539 50.855c-17.896 27.971-32.539 51.018-32.539 51.217 0 0.29019 46.113 72.937 61.367 96.677l3.6945 5.75-34.781-0.039-34.781-0.039-29.5-46.452c-16.225-25.549-29.846-46.456-30.269-46.461-0.4231-0.005-0.7517 20.129-0.7304 44.741 0.021 24.612 0.03 45.538 0.019 46.5-0.018 1.6304-2.2415 1.75-32.523 1.75h-32.503l0.2531-154.23z"/>
 </g>
</svg>
